<svg width="17" height="13" viewBox="0 0 17 13" fill="none" xmlns="http://www.w3.org/2000/svg">
<g clip-path="url(#clip0_1673_12764)">
<path fill-rule="evenodd" clip-rule="evenodd" d="M0 0H17V1.0004H0V0ZM0 2.00078H17V3.00119H0V2.00078ZM0 3.99902H17V5.00194H0V3.99902ZM0 5.9998H17V7.0002H0V5.9998ZM0 8.00058H17V9.00098H0V8.00058ZM0 9.99881H17V10.9992H0V9.99881ZM0 11.9996H17V13H0V11.9996Z" fill="#BD3D44"/>
<path fill-rule="evenodd" clip-rule="evenodd" d="M0 1H17V2.00038H0V1ZM0 3.00075H17V3.99861H0V3.00075ZM0 4.99902H17V5.99939H0V4.99902ZM0 6.9998H17V8.00018H0V6.9998ZM0 9.00058H17V10.001H0V9.00058ZM0 10.9988H17V11.9992H0V10.9988Z" fill="white"/>
<path fill-rule="evenodd" clip-rule="evenodd" d="M0 0H6.79965V7.0002H0V0Z" fill="#192F5D"/>
<path fill-rule="evenodd" clip-rule="evenodd" d="M0.56632 0.299805L0.629231 0.576515H0.828459L0.667667 0.746653L0.728845 1.02594L0.56632 0.85328L0.405547 1.02339L0.466706 0.746653L0.304199 0.576515H0.506913L0.56632 0.299805ZM1.70047 0.299805L1.76163 0.576515H1.96259L1.80007 0.746653L1.86125 1.02594L1.70047 0.85328L1.53795 1.02339L1.59911 0.746653L1.43833 0.576515H1.63756L1.70047 0.299805ZM2.83287 0.299805L2.89579 0.576542H3.09326L2.93249 0.74668L2.99363 1.02596L2.83112 0.853307L2.67035 1.02342L2.73151 0.74668L2.56898 0.576542H2.76996L2.83287 0.299805ZM3.96703 0.299805L4.02817 0.576542H4.22915L4.06662 0.74668L4.12953 1.02596L3.96701 0.853307L3.8045 1.02342L3.86741 0.74668L3.70489 0.576542H3.90412L3.96703 0.299805ZM5.09943 0.299805L5.16234 0.576542H5.36155L5.20078 0.74668L5.26194 1.02596L5.09941 0.853307L4.93864 1.02342L4.99981 0.74668L4.83904 0.576542H5.03825L5.09943 0.299805ZM6.23356 0.299805L6.29472 0.576542H6.4957L6.33318 0.74668L6.39609 1.02596L6.23356 0.853307L6.07104 1.02342L6.13395 0.74668L5.97144 0.576542H6.17241L6.23356 0.299805ZM1.13427 1.00053L1.19543 1.27732H1.39639L1.23387 1.44741L1.29329 1.7242L1.13601 1.55406L0.9735 1.72417L1.03115 1.44743L0.873886 1.2773H1.07311L1.13427 1.00053ZM2.26667 1.00053L2.32959 1.27732H2.52879L2.36627 1.44741L2.4292 1.7242L2.26666 1.55406L2.10415 1.72417L2.16706 1.44743L2.00453 1.2773H2.2055L2.26667 1.00053ZM3.40083 1.00053L3.46197 1.27732H3.66295L3.50042 1.44741L3.56158 1.7242L3.40081 1.55406L3.2383 1.72417L3.29946 1.44746L3.13869 1.27732H3.33792L3.40083 1.00053ZM4.53323 1.00053L4.59614 1.27732H4.79535L4.63282 1.44741L4.69574 1.7242L4.53321 1.55406L4.37244 1.72417L4.43361 1.44743L4.27109 1.2773H4.4738L4.53323 1.00053ZM5.66736 1.00053L5.72852 1.27732H5.9295L5.76698 1.44741L5.82814 1.7242L5.66736 1.55406L5.50484 1.72417L5.56602 1.44743L5.40524 1.2773H5.60445L5.66736 1.00053ZM0.56632 1.69885L0.629231 1.98068H0.828459L0.667667 2.15079L0.728845 2.42755L0.56632 2.2549L0.405547 2.42755L0.466706 2.14824L0.304199 1.97816H0.506913L0.56632 1.69885ZM1.70047 1.69885L1.76163 1.97808H1.96259L1.80007 2.14819L1.86125 2.42498L1.70047 2.2523L1.53795 2.42495L1.59911 2.14567L1.43833 1.97556H1.63756L1.70047 1.69885ZM2.83287 1.69885L2.89579 1.97813H3.09326L2.93249 2.14824L2.99363 2.42503L2.83112 2.25235L2.67035 2.42501L2.73151 2.14572L2.56898 1.97561H2.76996L2.83287 1.69885ZM3.96703 1.69885L4.02817 1.97813H4.22915L4.06662 2.14824L4.12953 2.42503L3.96701 2.25235L3.8045 2.42501L3.86741 2.14572L3.70489 1.97561H3.90412L3.96703 1.69885ZM5.09943 1.69885L5.16234 1.97813H5.36155L5.20078 2.14821L5.26194 2.42501L5.09941 2.25232L4.93864 2.42498L4.99981 2.1457L4.83904 1.97559H5.03825L5.09943 1.69885ZM6.23356 1.69885L6.29472 1.97813H6.4957L6.33318 2.14824L6.39609 2.42503L6.23356 2.25235L6.07104 2.42501L6.13395 2.14572L5.97144 1.97561H6.17241L6.23356 1.69885ZM1.13427 2.3996L1.19543 2.67637H1.39639L1.23387 2.84645L1.29505 3.12576L1.13427 2.9531L0.971747 3.12321L1.03291 2.84648L0.872133 2.67637H1.07138L1.13427 2.3996ZM2.26667 2.3996L2.32959 2.67637H2.52879L2.36627 2.84645L2.4292 3.12576L2.26666 2.9531L2.10415 3.12321L2.16706 2.84648L2.00453 2.67637H2.2055L2.26667 2.3996ZM3.40083 2.3996L3.46197 2.67637H3.66295L3.50042 2.84645L3.56158 3.12576L3.40081 2.9531L3.2383 3.12321L3.29946 2.84648L3.13869 2.67637H3.33792L3.40083 2.3996ZM4.53323 2.3996L4.59614 2.67637H4.79535L4.63458 2.84645L4.69574 3.12576L4.53321 2.9531L4.37244 3.12321L4.43361 2.84648L4.27109 2.67637H4.4738L4.53323 2.3996ZM5.66736 2.3996L5.72852 2.67637H5.9295L5.76698 2.84645L5.82814 3.12576L5.66736 2.9531L5.50484 3.12321L5.56602 2.84648L5.40524 2.67637H5.60445L5.66736 2.3996ZM0.56632 3.10038L0.629231 3.37715H0.828459L0.667667 3.54723L0.728845 3.82654L0.56632 3.65389L0.405547 3.824L0.466706 3.54726L0.304199 3.37715H0.506913L0.56632 3.10038ZM1.70047 3.10038L1.76163 3.37715H1.96259L1.80007 3.54723L1.86125 3.82402L1.70047 3.65389L1.53795 3.824L1.59911 3.54726L1.43833 3.37715H1.63756L1.70047 3.10038ZM2.83287 3.10038L2.89579 3.37715H3.09326L2.93249 3.54723L2.99363 3.82654L2.83112 3.65389L2.67035 3.824L2.73151 3.54726L2.56898 3.37715H2.76996L2.83287 3.10038ZM3.96703 3.10038L4.02817 3.37715H4.22915L4.06662 3.54723L4.12953 3.82654L3.96701 3.65389L3.8045 3.824L3.86741 3.54726L3.70489 3.37715H3.90412L3.96703 3.10038ZM5.09943 3.10038L5.16234 3.37715H5.36155L5.20078 3.54723L5.26194 3.82654L5.09941 3.65389L4.93864 3.824L4.99981 3.54726L4.83904 3.37715H5.03825L5.09943 3.10038ZM6.23356 3.10038L6.29472 3.37715H6.4957L6.33318 3.54723L6.39609 3.82654L6.23356 3.65389L6.07104 3.824L6.13395 3.54726L5.97144 3.37715H6.17241L6.23356 3.10038ZM1.13427 3.80116L1.19543 4.07793H1.39639L1.23387 4.24801L1.29505 4.5248L1.13427 4.35215L0.971747 4.5248L1.03291 4.24549L0.872133 4.07538H1.07138L1.13427 3.80116ZM2.26667 3.80116L2.32959 4.07793H2.52879L2.36627 4.24801L2.4292 4.5248L2.26666 4.35215L2.10415 4.5248L2.16706 4.24549L2.00453 4.07538H2.2055L2.26667 3.80116ZM3.40083 3.80116L3.46197 4.07793H3.66295L3.50042 4.24801L3.56158 4.5248L3.40081 4.35215L3.2383 4.5248L3.29946 4.24549L3.13869 4.07538H3.33792L3.40083 3.80116ZM4.53323 3.80116L4.59614 4.07793H4.79535L4.63458 4.24801L4.69574 4.5248L4.53321 4.35215L4.37244 4.5248L4.43361 4.24549L4.27109 4.07538H4.4738L4.53323 3.80116ZM5.66736 3.80116L5.72852 4.07793H5.9295L5.76698 4.24801L5.82814 4.5248L5.66736 4.35215L5.50484 4.5248L5.56602 4.24549L5.40524 4.07538H5.60445L5.66736 3.80116ZM0.56632 4.4994L0.629231 4.77871H0.828459L0.667667 4.94879L0.728845 5.22304L0.56632 5.05293L0.405547 5.22301L0.466706 4.94628L0.304199 4.77617H0.506913L0.56632 4.4994ZM1.70047 4.4994L1.76163 4.77871H1.96259L1.80007 4.94879L1.863 5.22304L1.70045 5.05293L1.53795 5.22301L1.60086 4.94628L1.43833 4.77617H1.63756L1.70047 4.4994ZM2.83287 4.4994L2.89579 4.77871H3.09326L2.93249 4.94879L2.99363 5.22304L2.83112 5.05293L2.67035 5.22301L2.73151 4.94628L2.56898 4.77617H2.76996L2.83287 4.4994ZM3.96703 4.4994L4.02817 4.77871H4.22915L4.06662 4.94879L4.12953 5.22304L3.96701 5.05293L3.8045 5.22301L3.86741 4.94628L3.70489 4.77617H3.90412L3.96703 4.4994ZM5.09943 4.4994L5.16234 4.77871H5.36155L5.20078 4.94879L5.26194 5.22304L5.09941 5.05293L4.93864 5.22301L4.99981 4.94628L4.83904 4.77617H5.03825L5.09943 4.4994ZM6.23356 4.4994L6.29472 4.77871H6.4957L6.33318 4.94879L6.39609 5.22304L6.23356 5.05293L6.07104 5.22301L6.13395 4.94628L5.97144 4.77617H6.17241L6.23356 4.4994ZM1.13427 5.20018L1.19543 5.47695H1.39639L1.23387 5.64706L1.29505 5.92637L1.13427 5.75371L0.971747 5.92379L1.03291 5.64706L0.872133 5.47695H1.07138L1.13427 5.20018ZM2.26667 5.20018L2.32959 5.47695H2.52879L2.36627 5.64706L2.4292 5.92637L2.26666 5.75371L2.10415 5.92379L2.16706 5.64706L2.00453 5.47695H2.2055L2.26667 5.20018ZM3.40083 5.20018L3.46197 5.47695H3.66295L3.50042 5.64706L3.56158 5.92637L3.40081 5.75371L3.2383 5.92379L3.29946 5.64706L3.13869 5.47695H3.33792L3.40083 5.20018ZM4.53323 5.20018L4.59614 5.47695H4.79535L4.63458 5.64706L4.69574 5.92637L4.53321 5.75371L4.37244 5.92379L4.43361 5.64706L4.27109 5.47695H4.4738L4.53323 5.20018ZM5.66736 5.20018L5.72852 5.47695H5.9295L5.76698 5.64706L5.82814 5.92637L5.66736 5.75371L5.50484 5.92379L5.56602 5.64706L5.40524 5.47695H5.60445L5.66736 5.20018ZM0.56632 5.90096L0.629231 6.17773H0.828459L0.667667 6.34784L0.728845 6.6246L0.56632 6.45449L0.405547 6.62458L0.466706 6.34529L0.304199 6.17518H0.506913L0.56632 5.90096ZM1.70047 5.90096L1.76163 6.17773H1.96259L1.80007 6.34784L1.863 6.6246L1.70045 6.45449L1.53795 6.62458L1.60086 6.34529L1.43833 6.17518H1.63756L1.70047 5.90096ZM2.83287 5.90096L2.89579 6.17773H3.09326L2.93597 6.34784L2.99713 6.6246L2.83461 6.45449L2.67384 6.62458L2.73501 6.34529L2.57249 6.17518H2.77345L2.83287 5.90096ZM3.96703 5.90096L4.02817 6.17773H4.22915L4.06662 6.34784L4.12953 6.6246L3.96701 6.45449L3.8045 6.62458L3.86741 6.34529L3.70489 6.17518H3.90412L3.96703 5.90096ZM5.09943 5.90096L5.16234 6.17773H5.36155L5.20078 6.34784L5.26194 6.6246L5.09941 6.45449L4.93864 6.62458L4.99981 6.34529L4.83904 6.17518H5.03825L5.09943 5.90096ZM6.23356 5.90096L6.29472 6.17773H6.4957L6.33318 6.34784L6.39609 6.6246L6.23356 6.45449L6.07104 6.62458L6.13395 6.34529L5.97144 6.17518H6.17241L6.23356 5.90096Z" fill="white"/>
</g>
<defs>
<clipPath id="clip0_1673_12764">
<rect width="17" height="13" fill="white"/>
</clipPath>
</defs>
</svg>
