<svg width="20" height="20" viewBox="0 0 20 20" fill="none" xmlns="http://www.w3.org/2000/svg">
<path d="M5.95825 17.583C5.74992 17.3747 5.64575 17.128 5.64575 16.843C5.64575 16.558 5.74992 16.3116 5.95825 16.1038L12.0624 9.99967L5.93742 3.87467C5.74297 3.68023 5.64575 3.43717 5.64575 3.14551C5.64575 2.85384 5.74992 2.60384 5.95825 2.39551C6.16659 2.18717 6.41325 2.08301 6.69825 2.08301C6.98325 2.08301 7.22964 2.18717 7.43742 2.39551L14.4374 9.41634C14.5208 9.49967 14.5799 9.58995 14.6149 9.68717C14.6499 9.7844 14.6671 9.88856 14.6666 9.99967C14.6666 10.1108 14.6491 10.215 14.6141 10.3122C14.5791 10.4094 14.5202 10.4997 14.4374 10.583L7.41658 17.6038C7.22214 17.7983 6.98242 17.8955 6.69742 17.8955C6.41242 17.8955 6.16603 17.7913 5.95825 17.583Z" fill="#040404"/>
</svg>
