<svg width="25" height="25" viewBox="0 0 25 25" fill="none" xmlns="http://www.w3.org/2000/svg">
<path d="M21.866 7.32246L21.844 17.7171C21.8374 20.8355 20.2738 22.9111 16.6357 22.9034L8.31995 22.8858C4.68182 22.8781 3.12702 20.7959 3.13362 17.6775L3.15562 7.28286C3.16222 4.16446 4.72582 2.08883 8.36394 2.09653L16.6797 2.11413C20.3178 2.12183 21.8726 4.20406 21.866 7.32246Z" stroke="#EF4444" stroke-width="1.54183" stroke-miterlimit="10" stroke-linecap="round" stroke-linejoin="round"/>
<path d="M16.1599 2.11311L16.1427 10.2833C16.1417 10.7407 15.6007 10.9682 15.2687 10.666L12.8619 8.43653C12.6648 8.24901 12.3529 8.24835 12.155 8.43503L9.73876 10.6543C9.4055 10.9551 8.86543 10.7253 8.8664 10.2679L8.88369 2.09771L16.1599 2.11311Z" stroke="#EF4444" stroke-width="1.54183" stroke-miterlimit="10" stroke-linecap="round" stroke-linejoin="round"/>
<path d="M13.7948 14.5815L18.2125 14.5908" stroke="#EF4444" stroke-width="1.54183" stroke-miterlimit="10" stroke-linecap="round" stroke-linejoin="round"/>
<path d="M9.36815 18.7302L18.2036 18.7489" stroke="#EF4444" stroke-width="1.54183" stroke-miterlimit="10" stroke-linecap="round" stroke-linejoin="round"/>
</svg>
