<svg width="16" height="16" viewBox="0 0 16 16" fill="none" xmlns="http://www.w3.org/2000/svg">
<path d="M14.4733 6.59999L12.8733 3.38666C12.56 2.75332 11.7267 2.23999 11.02 2.23999H4.97999C4.27332 2.23999 3.43999 2.75332 3.12665 3.38666L1.52665 6.59999C1.13998 7.37332 1.35331 8.47332 1.98665 9.05332L6.60665 13.2467C7.37332 13.94 8.61999 13.94 9.38665 13.2467L14.0066 9.05332C14.6466 8.47332 14.86 7.36666 14.4733 6.59999ZM10.6667 6.16666H8.49998V9.66666C8.49998 9.93999 8.27332 10.1667 7.99998 10.1667C7.72665 10.1667 7.49998 9.93999 7.49998 9.66666V6.16666H5.33332C5.05998 6.16666 4.83332 5.93999 4.83332 5.66666C4.83332 5.39332 5.05998 5.16666 5.33332 5.16666H10.6667C10.94 5.16666 11.1667 5.39332 11.1667 5.66666C11.1667 5.93999 10.94 6.16666 10.6667 6.16666Z" fill="#26A17B"/>
</svg>
