<svg width="20" height="20" viewBox="0 0 20 20" fill="none" xmlns="http://www.w3.org/2000/svg">
<path d="M12.5 18.9583H7.5C2.975 18.9583 1.04166 17.025 1.04166 12.5V7.50001C1.04166 2.97501 2.975 1.04167 7.5 1.04167H12.5C17.025 1.04167 18.9583 2.97501 18.9583 7.50001V12.5C18.9583 17.025 17.025 18.9583 12.5 18.9583ZM7.5 2.29167C3.65833 2.29167 2.29166 3.65834 2.29166 7.50001V12.5C2.29166 16.3417 3.65833 17.7083 7.5 17.7083H12.5C16.3417 17.7083 17.7083 16.3417 17.7083 12.5V7.50001C17.7083 3.65834 16.3417 2.29167 12.5 2.29167H7.5Z" fill="#121212"/>
</svg>
