<svg width="83" height="26" viewBox="0 0 83 26" fill="none" xmlns="http://www.w3.org/2000/svg">
<rect width="83.0001" height="25.1515" rx="3.7625" fill="#F1F5F9"/>
<path d="M10.89 17.606L8.5662 15.8422L10.5944 13.3447L7.54537 12.484L8.43188 9.61957L11.3466 10.8754L11.1452 7.54537H14.0196L13.8181 10.8754L16.7195 9.61957L17.606 12.484L14.5703 13.3447L16.5851 15.8422L14.2614 17.606L12.5824 14.8404L10.89 17.606Z" fill="#94A3B8"/>
<path d="M29.7536 17.606L27.4299 15.8422L29.4581 13.3447L26.409 12.484L27.2955 9.61957L30.2103 10.8754L30.0088 7.54537H32.8833L32.6818 10.8754L35.5831 9.61957L36.4696 12.484L33.434 13.3447L35.4488 15.8422L33.1251 17.606L31.446 14.8404L29.7536 17.606Z" fill="#94A3B8"/>
<path d="M48.6173 17.606L46.2935 15.8422L48.3218 13.3447L45.2727 12.484L46.1592 9.61957L49.074 10.8754L48.8725 7.54537H51.7469L51.5455 10.8754L54.4468 9.61957L55.3333 12.484L52.2977 13.3447L54.3125 15.8422L51.9887 17.606L50.3097 14.8404L48.6173 17.606Z" fill="#94A3B8"/>
<path d="M67.4809 17.606L65.1572 15.8422L67.1854 13.3447L64.1363 12.484L65.0229 9.61957L67.9376 10.8754L67.7361 7.54537H70.6106L70.4091 10.8754L73.3104 9.61957L74.197 12.484L71.1613 13.3447L73.1761 15.8422L70.8524 17.606L69.1734 14.8404L67.4809 17.606Z" fill="#94A3B8"/>
</svg>
