<svg width="34" height="34" viewBox="0 0 34 34" fill="none" xmlns="http://www.w3.org/2000/svg">
<path d="M16.9995 16.9993V29.7493M16.9995 16.9993L13.4579 19.8326M16.9995 16.9993L20.5412 19.8326M7.13104 12.915C5.79117 13.2522 4.62053 14.067 3.83906 15.2064C3.0576 16.3458 2.71909 17.7314 2.88714 19.1027C3.05519 20.4741 3.71824 21.7369 4.7517 22.6539C5.78516 23.5709 7.11791 24.079 8.49954 24.0826H9.9162" stroke="#5FD148" stroke-width="1.88239" stroke-linecap="round" stroke-linejoin="round"/>
<path d="M22.4249 10.1119C21.9407 8.19457 20.7455 6.53306 19.0817 5.46421C17.4179 4.39536 15.4099 3.99914 13.4648 4.35588C11.5197 4.71261 9.783 5.79561 8.60678 7.38533C7.43056 8.97504 6.90281 10.9525 7.13053 12.9169C7.13053 12.9169 7.34728 14.1664 7.79069 14.8748" stroke="#5FD148" stroke-width="1.88239" stroke-linecap="round" stroke-linejoin="round"/>
<path d="M24.0846 24.0832C25.0849 24.0825 26.0736 23.87 26.9858 23.4596C27.8979 23.0493 28.7129 22.4504 29.3769 21.7024C30.041 20.9544 30.5391 20.0743 30.8384 19.1199C31.1378 18.1656 31.2317 17.1586 31.1138 16.1653C30.996 15.1721 30.6691 14.215 30.1548 13.3572C29.6404 12.4994 28.9502 11.7602 28.1296 11.1884C27.3089 10.6165 26.3765 10.2249 25.3936 10.0394C24.4108 9.85389 23.3998 9.87863 22.4271 10.112L20.543 10.6248" stroke="#5FD148" stroke-width="1.88239" stroke-linecap="round" stroke-linejoin="round"/>
</svg>
