<svg width="20" height="20" viewBox="0 0 20 20" fill="none" xmlns="http://www.w3.org/2000/svg">
<path d="M7.5001 9.16667V15M12.5001 9.16667V15M11.6668 4.16667C11.6668 3.72464 11.4912 3.30072 11.1786 2.98816C10.8661 2.67559 10.4421 2.5 10.0001 2.5C9.55807 2.5 9.13415 2.67559 8.82159 2.98816C8.50903 3.30072 8.33343 3.72464 8.33343 4.16667M16.0501 8.08L17.2043 15.58C17.2408 15.8174 17.2255 16.0598 17.1596 16.2908C17.0937 16.5217 16.9787 16.7357 16.8224 16.918C16.6661 17.1004 16.4722 17.2468 16.254 17.3472C16.0359 17.4477 15.7986 17.4998 15.5584 17.5H4.44177C4.20146 17.5 3.96399 17.4481 3.74564 17.3477C3.52728 17.2474 3.33321 17.101 3.17672 16.9187C3.02024 16.7363 2.90504 16.5222 2.83902 16.2912C2.77301 16.0601 2.75774 15.8175 2.79427 15.58L3.94843 8.08C4.00898 7.68633 4.2085 7.32735 4.51087 7.06809C4.81324 6.80882 5.19847 6.66642 5.59677 6.66667H14.4034C14.8016 6.66662 15.1866 6.80911 15.4888 7.06836C15.791 7.3276 15.9896 7.68647 16.0501 8.08Z" stroke="#7A7A7A" stroke-width="1.5" stroke-linecap="round" stroke-linejoin="round"/>
</svg>
