<svg width="20" height="20" viewBox="0 0 20 20" fill="none" xmlns="http://www.w3.org/2000/svg">
<path d="M14.0417 17.583C14.2501 17.3747 14.3542 17.128 14.3542 16.843C14.3542 16.558 14.2501 16.3116 14.0417 16.1038L7.93758 9.99967L14.0626 3.87467C14.257 3.68023 14.3542 3.43717 14.3542 3.14551C14.3542 2.85384 14.2501 2.60384 14.0417 2.39551C13.8334 2.18717 13.5867 2.08301 13.3017 2.08301C13.0167 2.08301 12.7704 2.18717 12.5626 2.39551L5.56258 9.41634C5.47925 9.49967 5.42008 9.58995 5.38508 9.68717C5.35008 9.7844 5.33286 9.88856 5.33341 9.99967C5.33341 10.1108 5.35091 10.215 5.38591 10.3122C5.42091 10.4094 5.4798 10.4997 5.56258 10.583L12.5834 17.6038C12.7779 17.7983 13.0176 17.8955 13.3026 17.8955C13.5876 17.8955 13.834 17.7913 14.0417 17.583Z" fill="#BABABA"/>
</svg>
