<svg width="24" height="24" viewBox="0 0 24 24" fill="none" xmlns="http://www.w3.org/2000/svg">
<path d="M15.0001 22L14.5841 22.624C14.697 22.6993 14.8283 22.7425 14.9639 22.7491C15.0994 22.7556 15.2343 22.7253 15.354 22.6612C15.4736 22.5972 15.5737 22.5019 15.6434 22.3854C15.7132 22.269 15.7501 22.1358 15.7501 22H15.0001ZM12.0001 20L12.4161 19.376C12.2929 19.2939 12.1481 19.2501 12.0001 19.2501C11.852 19.2501 11.7073 19.2939 11.5841 19.376L12.0001 20ZM9.00007 22H8.25007C8.25008 22.1358 8.28693 22.269 8.35669 22.3854C8.42645 22.5019 8.5265 22.5972 8.64619 22.6612C8.76587 22.7253 8.90069 22.7556 9.03627 22.7491C9.17186 22.7425 9.30312 22.6993 9.41607 22.624L9.00007 22ZM15.4161 21.376L12.4161 19.376L11.5841 20.624L14.5841 22.624L15.4161 21.376ZM11.5841 19.376L8.58407 21.376L9.41607 22.624L12.4161 20.624L11.5841 19.376ZM12.9521 3.27602L12.9941 3.32602L14.1371 2.35402L14.0941 2.30402L12.9521 3.27602ZM15.3091 4.28502L15.3741 4.27902L15.2541 2.78402L15.1891 2.79002L15.3091 4.28502ZM16.7211 5.62502L16.7151 5.69102L18.2101 5.81102L18.2161 5.74602L16.7211 5.62502ZM17.6741 8.00502L17.7241 8.04802L18.6961 6.90602L18.6461 6.86302L17.6741 8.00502ZM17.7241 9.95202L17.6741 9.99402L18.6461 11.137L18.6961 11.094L17.7241 9.95202ZM16.7151 12.309L16.7211 12.374L18.2161 12.254L18.2101 12.189L16.7151 12.309ZM15.3751 13.721L15.3091 13.715L15.1891 15.21L15.2541 15.216L15.3751 13.721ZM12.9951 14.674L12.9521 14.724L14.0941 15.696L14.1371 15.646L12.9951 14.674ZM11.0481 14.724L11.0051 14.674L9.86307 15.646L9.90607 15.696L11.0481 14.724ZM8.69107 13.715L8.62607 13.72L8.74607 15.216L8.81107 15.211L8.69107 13.715ZM7.27907 12.375L7.28507 12.309L5.79007 12.189L5.78407 12.254L7.27907 12.375ZM6.32607 9.99502L6.27607 9.95202L5.30407 11.094L5.35407 11.137L6.32607 9.99502ZM6.27607 8.04802L6.32607 8.00502L5.35407 6.86302L5.30407 6.90602L6.27607 8.04802ZM7.28507 5.69102L7.27907 5.62602L5.78407 5.74602L5.79007 5.81102L7.28507 5.69102ZM8.62507 4.27902L8.69107 4.28502L8.81107 2.79002L8.74607 2.78402L8.62507 4.27902ZM11.0051 3.32602L11.0481 3.27602L9.90607 2.30402L9.86307 2.35402L11.0051 3.32602ZM8.69107 4.28502C9.1254 4.31985 9.56179 4.25097 9.96428 4.08407C10.3668 3.91716 10.7238 3.657 11.0061 3.32502L9.86307 2.35402C9.73478 2.50482 9.5725 2.62298 9.3896 2.69878C9.20671 2.77458 9.00842 2.80585 8.81107 2.79002L8.69107 4.28502ZM7.27907 5.62602C7.26472 5.44558 7.28974 5.26317 7.35238 5.09334C7.41503 4.9235 7.51382 4.76931 7.64191 4.6414C7.77 4.5135 7.92435 4.41494 8.09427 4.35255C8.2642 4.29015 8.44564 4.26541 8.62607 4.28002L8.74607 2.78502C8.34897 2.75303 7.94966 2.80769 7.57577 2.94522C7.20188 3.08276 6.86234 3.29989 6.58064 3.5816C6.29894 3.8633 6.08181 4.20284 5.94427 4.57673C5.80673 4.95062 5.75207 5.34993 5.78407 5.74702L7.27907 5.62602ZM6.32607 8.00502C6.65772 7.7228 6.9176 7.36585 7.08433 6.96355C7.25105 6.56125 7.31986 6.12511 7.28507 5.69102L5.79007 5.81102C5.82207 6.21102 5.66007 6.60302 5.35407 6.86302L6.32607 8.00502ZM6.27607 9.95202C6.13816 9.83468 6.02739 9.68877 5.95143 9.52439C5.87547 9.36002 5.83613 9.1811 5.83613 9.00002C5.83613 8.81895 5.87547 8.64003 5.95143 8.47566C6.02739 8.31128 6.13816 8.16537 6.27607 8.04802L5.30407 6.90602C5.00081 7.16419 4.75724 7.48514 4.59021 7.84669C4.42318 8.20824 4.33667 8.60176 4.33667 9.00002C4.33667 9.39829 4.42318 9.79181 4.59021 10.1534C4.75724 10.5149 5.00081 10.8359 5.30407 11.094L6.27607 9.95202ZM7.28507 12.309C7.3199 11.8747 7.25102 11.4383 7.08411 11.0358C6.9172 10.6333 6.65704 10.2762 6.32507 9.99402L5.35407 11.137C5.66007 11.397 5.82207 11.789 5.79007 12.189L7.28507 12.309ZM8.62507 13.721C8.44454 13.7355 8.26302 13.7106 8.09307 13.648C7.92311 13.5855 7.76879 13.4867 7.64077 13.3586C7.51275 13.2305 7.41411 13.0761 7.35165 12.9061C7.2892 12.7361 7.26443 12.5545 7.27907 12.374L5.78407 12.254C5.75207 12.6511 5.80673 13.0504 5.94427 13.4243C6.08181 13.7982 6.29894 14.1378 6.58064 14.4195C6.86234 14.7012 7.20188 14.9183 7.57577 15.0558C7.94966 15.1934 8.34897 15.248 8.74607 15.216L8.62507 13.721ZM12.9521 14.724C12.8347 14.8619 12.6888 14.9727 12.5244 15.0487C12.3601 15.1246 12.1811 15.164 12.0001 15.164C11.819 15.164 11.6401 15.1246 11.4757 15.0487C11.3113 14.9727 11.1654 14.8619 11.0481 14.724L9.90607 15.696C10.1642 15.9993 10.4852 16.2429 10.8467 16.4099C11.2083 16.5769 11.6018 16.6634 12.0001 16.6634C12.3983 16.6634 12.7919 16.5769 13.1534 16.4099C13.515 16.2429 13.8359 15.9993 14.0941 15.696L12.9521 14.724ZM16.7211 12.374C16.7356 12.5546 16.7107 12.7361 16.6481 12.906C16.5855 13.076 16.4867 13.2303 16.3586 13.3583C16.2305 13.4863 16.0761 13.585 15.9061 13.6474C15.7361 13.7099 15.5546 13.7347 15.3741 13.72L15.2541 15.216C15.6512 15.248 16.0505 15.1934 16.4244 15.0558C16.7983 14.9183 17.1378 14.7012 17.4195 14.4195C17.7012 14.1378 17.9183 13.7982 18.0559 13.4243C18.1934 13.0504 18.2481 12.6511 18.2161 12.254L16.7211 12.374ZM17.6741 9.99402C17.3423 10.2764 17.0823 10.6335 16.9156 11.0359C16.7488 11.4384 16.6801 11.8748 16.7151 12.309L18.2101 12.189C18.1781 11.789 18.3401 11.397 18.6461 11.137L17.6741 9.99402ZM17.7241 8.04802C17.862 8.16537 17.9727 8.31128 18.0487 8.47566C18.1247 8.64003 18.164 8.81895 18.164 9.00002C18.164 9.1811 18.1247 9.36002 18.0487 9.52439C17.9727 9.68877 17.862 9.83468 17.7241 9.95202L18.6961 11.094C18.9993 10.8359 19.2429 10.5149 19.4099 10.1534C19.577 9.79181 19.6635 9.39829 19.6635 9.00002C19.6635 8.60176 19.577 8.20824 19.4099 7.84669C19.2429 7.48514 18.9993 7.16419 18.6961 6.90602L17.7241 8.04802ZM16.7151 5.69102C16.6802 6.12536 16.7491 6.56175 16.916 6.96424C17.0829 7.36673 17.3431 7.7238 17.6751 8.00602L18.6461 6.86302C18.4953 6.73473 18.3771 6.57246 18.3013 6.38956C18.2255 6.20666 18.1942 6.00837 18.2101 5.81102L16.7151 5.69102ZM15.3751 4.27902C15.5556 4.26452 15.7371 4.28942 15.9071 4.352C16.077 4.41458 16.2314 4.51334 16.3594 4.64146C16.4874 4.76957 16.586 4.92397 16.6485 5.09397C16.7109 5.26397 16.7357 5.44451 16.7211 5.62502L18.2161 5.74602C18.2481 5.34893 18.1934 4.94962 18.0559 4.57573C17.9183 4.20184 17.7012 3.8623 17.4195 3.5806C17.1378 3.29889 16.7983 3.08176 16.4244 2.94422C16.0505 2.80669 15.6512 2.75203 15.2541 2.78402L15.3751 4.27902ZM12.9941 3.32602C13.2763 3.65767 13.6342 3.91756 14.0365 4.08428C14.4388 4.25101 14.875 4.31981 15.3091 4.28502L15.1891 2.79002C14.9917 2.80585 14.7934 2.77458 14.6105 2.69878C14.4276 2.62298 14.2654 2.50482 14.1371 2.35402L12.9941 3.32602ZM14.0951 2.30402C13.8369 2.00042 13.5158 1.75655 13.1541 1.58931C12.7924 1.42207 12.3986 1.33545 12.0001 1.33545C11.6015 1.33545 11.2078 1.42207 10.846 1.58931C10.4843 1.75655 10.1632 2.00042 9.90507 2.30402L11.0481 3.27602C11.1654 3.13812 11.3113 3.02735 11.4757 2.95139C11.6401 2.87543 11.819 2.83608 12.0001 2.83608C12.1811 2.83608 12.3601 2.87543 12.5244 2.95139C12.6888 3.02735 12.8347 3.13812 12.9521 3.27602L14.0951 2.30402ZM11.0051 14.674C10.7603 14.3864 10.4588 14.1522 10.1195 13.9862C9.78027 13.8202 9.41042 13.7258 9.03307 13.709L8.96707 15.208C9.31107 15.223 9.63707 15.38 9.86307 15.646L11.0051 14.674ZM9.03307 13.709C8.91905 13.704 8.80484 13.706 8.69107 13.715L8.81107 15.21C8.86297 15.2059 8.91508 15.2052 8.96707 15.208L9.03307 13.709ZM9.75007 22V14.458H8.25007V22H9.75007ZM15.3101 13.715C15.196 13.7059 15.0814 13.7039 14.9671 13.709L15.0331 15.208C15.0851 15.2052 15.1372 15.2059 15.1891 15.21L15.3101 13.715ZM14.9671 13.709C14.5895 13.7257 14.2195 13.82 13.88 13.986C13.5406 14.152 13.24 14.3862 12.9951 14.674L14.1371 15.646C14.2484 15.5154 14.3853 15.4091 14.5395 15.3338C14.6936 15.2584 14.8617 15.2156 15.0331 15.208L14.9671 13.709ZM14.2501 14.459V22H15.7501V14.458L14.2501 14.459Z" fill="#F59E0B"/>
<path d="M14 8L11 11L10 10" stroke="#F59E0B" stroke-width="1.5" stroke-linecap="round" stroke-linejoin="round"/>
</svg>
