<svg width="24" height="24" viewBox="0 0 24 24" fill="none" xmlns="http://www.w3.org/2000/svg">
<path d="M20.04 6.81872L14.28 2.78872C12.71 1.68872 10.3 1.74872 8.78999 2.91872L3.77999 6.82872C2.77999 7.60872 1.98999 9.20872 1.98999 10.4687V17.3687C1.98999 19.9187 4.05999 21.9987 6.60999 21.9987H17.39C19.94 21.9987 22.01 19.9287 22.01 17.3787V10.5987C22.01 9.24872 21.14 7.58872 20.04 6.81872ZM12.75 17.9987C12.75 18.4087 12.41 18.7487 12 18.7487C11.59 18.7487 11.25 18.4087 11.25 17.9987V14.9987C11.25 14.5887 11.59 14.2487 12 14.2487C12.41 14.2487 12.75 14.5887 12.75 14.9987V17.9987Z" fill="#5FD148"/>
</svg>
