<svg width="19" height="19" viewBox="0 0 19 19" fill="none" xmlns="http://www.w3.org/2000/svg">
<path d="M10.2917 3.95871C10.2917 3.52149 9.93724 3.16705 9.50001 3.16705C9.06279 3.16705 8.70835 3.52149 8.70835 3.95871V8.70872H3.95834C3.52112 8.70872 3.16668 9.06316 3.16668 9.50038C3.16668 9.93761 3.52112 10.292 3.95834 10.292H8.70835V15.0421C8.70835 15.4793 9.06279 15.8337 9.50001 15.8337C9.93724 15.8337 10.2917 15.4793 10.2917 15.0421V10.292H15.0417C15.4789 10.292 15.8333 9.93761 15.8333 9.50038C15.8333 9.06316 15.4789 8.70872 15.0417 8.70872H10.2917V3.95871Z" fill="white"/>
</svg>
