<svg width="20" height="20" viewBox="0 0 20 20" fill="none" xmlns="http://www.w3.org/2000/svg">
<path fill-rule="evenodd" clip-rule="evenodd" d="M11.0158 10.8531C9.55631 12.0207 7.76927 13.7984 6.56819 16.2007L8.43156 17.1323C9.45267 15.0901 10.9989 13.5345 12.3172 12.4799C12.9726 11.9556 13.5616 11.5632 13.9832 11.3037C14.1937 11.1742 14.3617 11.0783 14.4743 11.0161C14.5306 10.9851 14.573 10.9625 14.5999 10.9484L14.6283 10.9336L14.6328 10.9314C14.6327 10.9314 14.6327 10.9314 14.6323 10.9306L14.6323 9.06931C14.6327 9.06847 14.6328 9.06848 14.6328 9.0685L14.6283 9.06623L14.5999 9.05146C14.573 9.03736 14.5306 9.01477 14.4743 8.98372C14.3617 8.92158 14.1937 8.82569 13.9832 8.69614C13.5616 8.43666 12.9726 8.04425 12.3172 7.51988C10.9989 6.46524 9.45267 4.90967 8.43156 2.86739L6.56819 3.79905C7.76927 6.20129 9.5563 7.97907 11.0158 9.14666C11.4291 9.47734 11.8195 9.76169 12.1676 9.99991C11.8195 10.2381 11.4291 10.5225 11.0158 10.8531Z" fill="black"/>
</svg>
