<svg width="122" height="32" viewBox="0 0 122 32" fill="none" xmlns="http://www.w3.org/2000/svg">
<path fill-rule="evenodd" clip-rule="evenodd" d="M7.95372 25.4539L11.2672 6.54467H14.9387L11.6238 25.4539H7.95372Z" fill="white"/>
<path fill-rule="evenodd" clip-rule="evenodd" d="M22.7741 0H10.1229C8.20544 0 6.36654 0.766211 5.01071 2.13008C3.65488 3.49394 2.89318 5.34374 2.89318 7.27254C2.89318 9.20133 3.65488 11.0511 5.01071 12.415C6.36654 13.7789 8.20544 14.5451 10.1229 14.5451H20.0708L20.7466 10.9088H10.1229C9.64817 10.9088 9.17811 10.8148 8.73954 10.632C8.30096 10.4493 7.90247 10.1814 7.5668 9.84377C7.23113 9.50611 6.96486 9.10525 6.7832 8.66408C6.60153 8.2229 6.50803 7.75006 6.50803 7.27254C6.50803 6.79501 6.60153 6.32217 6.7832 5.881C6.96486 5.43982 7.23113 5.03897 7.5668 4.70131C7.90247 4.36365 8.30096 4.0958 8.73954 3.91306C9.17811 3.73032 9.64817 3.63627 10.1229 3.63627H22.0983L22.7741 0Z" fill="white"/>
<path fill-rule="evenodd" clip-rule="evenodd" d="M0 32H12.6527C14.5702 32 16.4091 31.2338 17.7649 29.8699C19.1207 28.5061 19.8824 26.6563 19.8824 24.7275C19.8824 22.7987 19.1207 20.9489 17.7649 19.585C16.4091 18.2211 14.5702 17.4549 12.6527 17.4549H2.7033L2.02748 21.0912H12.6527C13.1274 21.0912 13.5975 21.1852 14.0361 21.368C14.4746 21.5507 14.8731 21.8186 15.2088 22.1562C15.5445 22.4939 15.8107 22.8947 15.9924 23.3359C16.1741 23.7771 16.2676 24.2499 16.2676 24.7275C16.2676 25.205 16.1741 25.6778 15.9924 26.119C15.8107 26.5602 15.5445 26.961 15.2088 27.2987C14.8731 27.6363 14.4746 27.9042 14.0361 28.0869C13.5975 28.2697 13.1274 28.3637 12.6527 28.3637H0.675826L0 32Z" fill="white"/>
<path d="M39.4769 18.1199C42.1146 18.7067 45.5429 19.8098 45.4743 23.4986C45.4743 25.1494 44.8224 26.4625 43.5543 27.393C42.2861 28.3234 40.7107 28.8141 38.7892 28.8141C35.3966 28.8141 32.8947 27.2984 31.7982 24.7817L34.9848 22.9193C35.5687 24.5741 36.8368 25.4015 38.7892 25.4015C40.7435 25.4015 41.7028 24.7472 41.7028 23.4715C41.7028 22.3685 40.2631 21.7127 38.4475 21.2655C35.877 20.6097 32.4158 19.5757 32.48 15.9559C32.48 14.3696 33.0618 13.094 34.2613 12.129C35.4607 11.1641 36.969 10.6808 38.7504 10.6808C41.5954 10.6808 43.8914 12.0315 45.0909 14.2661L41.9728 16.0249C41.3895 14.7148 40.293 14.0605 38.7504 14.0605C37.3465 14.0605 36.2485 14.6803 36.2485 15.8869C36.2529 17.0169 37.6941 17.6037 39.4769 18.1199Z" fill="white"/>
<path d="M57.6066 14.7072H53.3562V22.9807C53.3562 25.1868 54.7959 25.1523 57.6066 25.0142V28.3638C51.9523 29.0527 49.6548 27.5009 49.6548 22.9852V14.7072H46.5025V11.1219H49.6548V7.39862L53.3562 6.30309V11.1219H57.6066V14.7072Z" fill="white"/>
<path d="M73.8493 11.1219H77.5506V28.3638H73.8493V25.8771C72.4439 27.8415 70.4567 28.8065 67.8519 28.8065C65.4872 28.8065 63.5 27.9451 61.8201 26.1862C60.1403 24.4274 59.3182 22.2573 59.3182 19.7331C59.3182 17.1819 60.1418 15.0448 61.8201 13.28C63.4985 11.5151 65.4947 10.6732 67.8533 10.6732C70.4582 10.6732 72.4454 11.6397 73.8507 13.5696L73.8493 11.1219ZM68.4352 25.2558C69.9763 25.2558 71.2787 24.7395 72.3066 23.7055C73.336 22.6355 73.8493 21.3269 73.8493 19.7406C73.8493 18.1543 73.336 16.8442 72.3066 15.8102C71.2787 14.7417 69.9763 14.2239 68.4352 14.2239C66.8941 14.2239 65.5901 14.7417 64.5563 15.8102C63.5289 16.8447 63.0147 18.1548 63.0137 19.7406C63.0137 21.3269 63.5284 22.6355 64.5563 23.7055C65.5916 24.7395 66.8941 25.2558 68.4367 25.2558H68.4352Z" fill="white"/>
<path d="M80.4981 28.3638V3.1936H84.1995V28.3638H80.4981Z" fill="white"/>
<path d="M87.113 28.3638V3.1936H90.8129V28.3638H87.113Z" fill="white"/>
<path d="M95.9542 21.327C96.5017 23.9458 98.5933 25.394 101.437 25.394C103.391 25.394 104.868 24.6706 105.859 23.2569L108.908 25.0488C107.228 27.5655 104.731 28.8006 101.403 28.8006C98.6277 28.8006 96.366 27.9392 94.6518 26.2494C92.9371 24.5265 92.0803 22.355 92.0812 19.7347C92.0812 17.149 92.9376 15.0119 94.6175 13.2816C96.2973 11.5242 98.4964 10.6613 101.13 10.6613C103.63 10.6613 105.687 11.5617 107.297 13.3161C108.907 15.0704 109.73 17.2465 109.73 19.7692C109.724 20.2893 109.678 20.808 109.593 21.321L95.9542 21.327ZM105.995 18.2925C105.481 15.4996 103.527 14.0529 101.095 14.0529C98.3531 14.0529 96.4331 15.6722 95.9199 18.2925H105.995Z" fill="white"/>
<path d="M122 14.7072H117.751V22.9807C117.751 25.1868 119.189 25.1523 122 25.0142V28.3638C116.345 29.0527 114.049 27.5009 114.049 22.9852V14.7072H110.896V11.1219H114.049V7.39862L117.751 6.30309V11.1219H122V14.7072Z" fill="white"/>
</svg>
