<svg width="22" height="22" viewBox="0 0 22 22" fill="none" xmlns="http://www.w3.org/2000/svg">
<path d="M16 3.66634V4.16634H16.5H17.4167C18.1489 4.16634 18.75 4.76748 18.75 5.49967V18.333C18.75 19.0652 18.1489 19.6663 17.4167 19.6663H4.58333C3.84366 19.6663 3.25009 19.0669 3.25 18.3332C3.25 18.3331 3.25 18.3331 3.25 18.333L3.25917 5.50003V5.49967C3.25917 4.76257 3.84686 4.16634 4.58333 4.16634H5.5H6V3.66634V2.33301H6.83333V3.66634V4.16634H7.33333H14.6667H15.1667V3.66634V2.33301H16V3.66634ZM17.4167 18.833H17.9167V18.333V8.24967V7.74967H17.4167H4.58333H4.08333V8.24967V18.333V18.833H4.58333H17.4167ZM6.91667 11.4163V10.583H7.75V11.4163H6.91667ZM10.5833 11.4163V10.583H11.4167V11.4163H10.5833ZM14.25 11.4163V10.583H15.0833V11.4163H14.25Z" fill="#B1B0B9" stroke="#B1B0B9"/>
</svg>
