<svg width="21" height="24" viewBox="0 0 21 24" fill="none" xmlns="http://www.w3.org/2000/svg">
<g clip-path="url(#clip0_0_27)">
<path d="M6.53 8.09786L6.67 8.08586C6.72069 8.08026 6.76917 8.06204 6.811 8.03286L6.81 8.03386C6.944 8.49586 7.108 8.98186 7.313 9.49086C7.576 10.1569 7.835 10.7039 8.125 11.2319L8.085 11.1519C8.061 11.5159 8.032 11.8899 7.994 12.2519C7.97735 12.4654 7.93401 12.6761 7.865 12.8789L7.87 12.8609C7.858 12.8659 7.841 14.9409 7.841 14.9409C7.84137 15.5847 8.05836 16.2097 8.45706 16.7152C8.85576 17.2208 9.41297 17.5774 10.039 17.7279L10.059 17.7319C10.0868 17.6597 10.1358 17.5976 10.1995 17.5537C10.2632 17.5098 10.3386 17.4861 10.416 17.4859H10.99C11.0667 17.4869 11.1413 17.5105 11.2046 17.5537C11.2679 17.5969 11.3171 17.6579 11.346 17.7289L11.347 17.7319C11.9783 17.5859 12.5419 17.2311 12.9465 16.7249C13.351 16.2188 13.5728 15.5908 13.576 14.9429C13.576 14.9429 13.541 12.8759 13.523 12.8619C13.4634 12.6686 13.4225 12.47 13.401 12.2689L13.4 12.2539C13.365 11.8899 13.342 11.5249 13.309 11.1539C13.556 10.7079 13.815 10.1619 14.043 9.59886L14.081 9.49286C14.286 8.98386 14.445 8.49886 14.584 8.03586C14.6251 8.06503 14.6729 8.08327 14.723 8.08886H14.724L14.865 8.10086C15.035 8.11886 15.185 7.97886 15.199 7.76186L15.351 5.83086V5.82886C15.3509 5.75115 15.3225 5.67614 15.2712 5.6178C15.2199 5.55947 15.1491 5.52182 15.072 5.51186H15.053C15.1862 4.50635 15.1037 3.48401 14.811 2.51286L14.824 2.56386C14.5419 1.93758 14.113 1.38858 13.5735 0.963462C13.034 0.53834 12.3999 0.24964 11.725 0.121859L11.699 0.117859C11.3718 0.0522574 11.0396 0.0147873 10.706 0.00585938H10.685C10.336 0.0121085 9.98846 0.0516207 9.647 0.123859L9.683 0.117859C9.00848 0.24306 8.37377 0.528018 7.83199 0.948879C7.29021 1.36974 6.85713 1.91426 6.569 2.53686L6.558 2.56386C6.27009 3.53126 6.19336 4.54923 6.333 5.54886L6.329 5.51186C6.25173 5.52022 6.18025 5.55677 6.12823 5.61451C6.0762 5.67225 6.04728 5.74714 6.047 5.82486V5.83186L6.199 7.76286C6.213 7.98486 6.365 8.11886 6.529 8.10086L6.53 8.09786Z" fill="#F59E0B"/>
<path d="M21.416 20.878C21.346 17.838 21.042 17.15 20.878 16.684C20.813 16.497 20.76 15.233 18.672 14.413C17.392 13.909 15.74 13.899 14.342 13.308V14.952C14.3406 15.7948 14.0461 16.6109 13.509 17.2604C12.9718 17.9099 12.2256 18.3524 11.398 18.512L11.375 18.516C11.36 18.6047 11.3144 18.6853 11.246 18.7438C11.1777 18.8023 11.091 18.8349 11.001 18.836H10.983V20.076C10.983 20.6579 11.2142 21.216 11.6256 21.6274C12.0371 22.0389 12.5951 22.27 13.177 22.27C13.7589 22.27 14.317 22.0389 14.7284 21.6274C15.1399 21.216 15.371 20.6579 15.371 20.076V19.21C15.069 19.1657 14.7937 19.0123 14.5972 18.7787C14.4007 18.5452 14.2965 18.2477 14.3045 17.9426C14.3125 17.6374 14.4321 17.3458 14.6405 17.1228C14.849 16.8999 15.132 16.7611 15.4359 16.7326C15.7398 16.7042 16.0436 16.7882 16.2898 16.9686C16.536 17.149 16.7075 17.4134 16.772 17.7118C16.8364 18.0101 16.7893 18.3218 16.6395 18.5877C16.4897 18.8537 16.2476 19.0555 15.959 19.155L15.95 19.158V20.123C15.95 20.8587 15.6578 21.5643 15.1375 22.0845C14.6173 22.6048 13.9117 22.897 13.176 22.897C12.4403 22.897 11.7347 22.6048 11.2145 22.0845C10.6943 21.5643 10.402 20.8587 10.402 20.123V20.073V20.075V18.824C10.3164 18.8182 10.2352 18.7836 10.1717 18.7259C10.1082 18.6682 10.066 18.5907 10.052 18.506V18.504C9.22357 18.346 8.47583 17.9049 7.93691 17.2561C7.39799 16.6074 7.10143 15.7914 7.09803 14.948V13.291C5.69403 13.894 4.03203 13.906 2.74503 14.411C0.651029 15.23 0.60303 16.491 0.53903 16.681C0.37903 17.149 0.0710296 17.834 0.00102956 20.876C-0.0109704 21.276 0.00102961 21.889 1.20703 22.425C3.83303 23.455 7.21603 23.775 10.551 24.005H10.871C14.213 23.777 17.591 23.458 20.215 22.425C21.416 21.892 21.427 21.282 21.416 20.878ZM6.73503 19.638H5.48903V20.889H4.59903V19.642H3.35303V18.752H4.59903V17.506H5.48903V18.752H6.73503V19.638Z" fill="#F59E0B"/>
<path d="M16.2249 17.9645C16.2248 17.7861 16.1538 17.614 16.0275 17.4879C15.9013 17.3618 15.7301 17.2909 15.5517 17.291C15.3732 17.2911 15.2021 17.362 15.0759 17.4882C14.9498 17.6144 14.8789 17.7856 14.8789 17.964C14.8789 18.1425 14.9498 18.3136 15.0759 18.4398C15.2021 18.566 15.3732 18.637 15.5517 18.637C15.7301 18.6371 15.9013 18.5663 16.0275 18.4402C16.1538 18.3141 16.2248 18.143 16.2249 17.9645Z" fill="#F59E0B"/>
</g>
<defs>
<clipPath id="clip0_0_27">
<rect width="21" height="24" fill="white"/>
</clipPath>
</defs>
</svg>
