<svg width="25" height="25" viewBox="0 0 25 25" fill="none" xmlns="http://www.w3.org/2000/svg">
<path d="M8.32136 22.886L16.6371 22.9036C20.8157 22.9124 21.5677 21.2405 21.7903 19.2036L22.5875 10.8895C22.8735 8.35383 22.1503 6.28376 17.7117 6.27436L7.31709 6.25237C2.87858 6.24297 2.14658 8.30997 2.42186 10.8469L3.18386 19.1642C3.39784 21.202 4.14271 22.8772 8.32136 22.886Z" stroke="#22C55E" stroke-width="1.54183" stroke-miterlimit="10" stroke-linecap="round" stroke-linejoin="round"/>
<path d="M8.35688 6.25446L8.35864 5.42289C8.36253 3.58304 8.36568 2.0966 11.692 2.10364L13.3551 2.10716C16.6814 2.1142 16.6782 3.60064 16.6744 5.44049L16.6726 6.27206" stroke="#22C55E" stroke-width="1.54183" stroke-miterlimit="10" stroke-linecap="round" stroke-linejoin="round"/>
<path d="M14.5782 13.5439L14.576 14.5834C14.576 14.5938 14.576 14.5938 14.5759 14.6042C14.5735 15.7372 14.5612 16.6623 12.4927 16.6579C10.4345 16.6536 10.4157 15.7388 10.4181 14.6058L10.4203 13.5351C10.4225 12.4957 10.4225 12.4957 11.462 12.4979L13.5409 12.5023C14.5804 12.5045 14.5804 12.5045 14.5782 13.5439Z" stroke="#22C55E" stroke-width="1.54183" stroke-miterlimit="10" stroke-linecap="round" stroke-linejoin="round"/>
<path d="M22.5346 11.482C20.1297 13.2232 17.3833 14.2569 14.576 14.6043" stroke="#22C55E" stroke-width="1.54183" stroke-miterlimit="10" stroke-linecap="round" stroke-linejoin="round"/>
<path d="M2.75309 11.7204C5.0885 13.3262 7.72669 14.2985 10.4183 14.6056" stroke="#22C55E" stroke-width="1.54183" stroke-miterlimit="10" stroke-linecap="round" stroke-linejoin="round"/>
</svg>
