<svg width="24" height="24" viewBox="0 0 24 24" fill="none" xmlns="http://www.w3.org/2000/svg">
<path opacity="0.5" d="M6.48834 4.21396L6.48807 4.21412C5.81982 4.59598 5.59086 5.45859 5.97293 6.11986L5.54 6.37L5.97259 6.11926C6.48096 6.99635 6.59103 7.90837 6.17321 8.6334C5.75545 9.35834 4.91153 9.72 3.9 9.72C3.12785 9.72 2.5 10.3544 2.5 11.12V12.88C2.5 13.6456 3.12785 14.28 3.9 14.28C4.91153 14.28 5.75545 14.6417 6.17321 15.3666C6.59097 16.0915 6.48099 17.0034 5.9728 17.8804C5.59092 18.5416 5.8199 19.4041 6.48807 19.7859L6.48834 19.786L8.21834 20.776L8.22568 20.7802L8.22565 20.7803C8.768 21.103 9.48373 20.9172 9.8189 20.3567L9.92729 20.1695L9.92741 20.1693C10.4357 19.2924 11.1722 18.7425 12.0087 18.7425C12.8458 18.7425 13.5799 19.2929 14.0832 20.1704C14.0834 20.1707 14.0836 20.171 14.0838 20.1713L14.1911 20.3567C14.5263 20.9172 15.242 21.103 15.7844 20.7803L15.7916 20.776L15.7917 20.776L17.5217 19.786L17.5219 19.7859C18.1892 19.4046 18.4201 18.5518 18.0365 17.8791C17.5289 17.0025 17.4192 16.0912 17.8368 15.3666C18.2546 14.6417 19.0985 14.28 20.11 14.28C20.8821 14.28 21.51 13.6456 21.51 12.88V11.12C21.51 10.3478 20.8756 9.72 20.11 9.72C19.0985 9.72 18.2546 9.35834 17.8368 8.6334C17.419 7.90848 17.529 6.99664 18.0372 6.11967M6.48834 4.21396L17.77 20.22C18.68 19.7 18.99 18.54 18.47 17.63C17.56 16.06 18.3 14.78 20.11 14.78C21.16 14.78 22.01 13.92 22.01 12.88V11.12C22.01 10.07 21.15 9.22 20.11 9.22C18.3 9.22 17.56 7.94 18.47 6.37C18.99 5.47 18.68 4.3 17.77 3.78L16.04 2.79C15.25 2.32 14.23 2.6 13.76 3.39M6.48834 4.21396L8.21834 3.22396L8.21837 3.22403L8.22565 3.2197C8.76799 2.89704 9.48372 3.08275 9.81889 3.64329M6.48834 4.21396L7.97 2.79C8.76 2.32 9.78 2.6 10.25 3.39M18.0372 6.11967C18.0373 6.11954 18.0373 6.1194 18.0374 6.11926L18.4699 6.36996L18.0371 6.11986C18.0371 6.1198 18.0371 6.11974 18.0372 6.11967ZM18.0372 6.11967C18.4191 5.45843 18.1901 4.59594 17.5219 4.21412L17.5217 4.21396L15.7917 3.22396L15.7843 3.21976L15.7844 3.2197C15.242 2.89703 14.5263 3.08276 14.1911 3.64332M14.1911 3.64332L14.1927 3.64052L13.76 3.39M14.1911 3.64332C14.1906 3.64409 14.1902 3.64487 14.1897 3.64564L13.76 3.39M14.1911 3.64332L14.0827 3.83052L14.0826 3.83073C13.5743 4.7076 12.8378 5.2575 12.0012 5.2575C11.1642 5.2575 10.4301 4.7071 9.92678 3.82964L9.92729 3.83052L10.36 3.58001L9.92622 3.82866L9.81889 3.64329M13.76 3.39L13.65 3.58C12.74 5.15 11.26 5.15 10.36 3.58L10.25 3.39M9.81889 3.64329C9.81936 3.64408 9.81983 3.64486 9.8203 3.64564L10.25 3.39M9.81889 3.64329L9.81729 3.64052L10.25 3.39" fill="#7A5AF8" stroke="#7A5AF8"/>
<path d="M14.75 12C14.75 13.5188 13.5188 14.75 12 14.75C10.4812 14.75 9.25 13.5188 9.25 12C9.25 10.4812 10.4812 9.25 12 9.25C13.5188 9.25 14.75 10.4812 14.75 12Z" fill="#7A5AF8" stroke="#7A5AF8"/>
</svg>
