<svg width="24" height="24" viewBox="0 0 24 24" fill="none" xmlns="http://www.w3.org/2000/svg">
<path d="M14.8184 21.4951L14.8184 21.4951L14.812 21.4961C14.6654 21.5193 14.5905 21.4749 14.5562 21.4403C14.5201 21.404 14.4739 21.3225 14.495 21.1704C14.4951 21.1701 14.4951 21.1698 14.4951 21.1695L14.7233 19.5925C14.7338 19.5404 14.7617 19.457 14.8072 19.3661C14.8556 19.2694 14.9045 19.2026 14.9335 19.1736L14.58 18.82L14.9335 19.1736L19.0835 15.0236C19.4147 14.6924 19.699 14.528 19.9545 14.5026C20.1833 14.4798 20.5113 14.5584 20.9664 15.0136C21.4258 15.4729 21.5054 15.806 21.4824 16.0383C21.4569 16.2968 21.2917 16.5813 20.9664 16.9065L16.8164 21.0565C16.7842 21.0887 16.7144 21.1404 16.6203 21.1883C16.5251 21.2369 16.448 21.2598 16.4124 21.2646L16.4124 21.2646L16.4084 21.2652L14.8184 21.4951Z" fill="#7A5AF8" stroke="#9B8AFB"/>
<mask id="path-2-inside-1_152_3239" fill="white">
<path d="M18.14 15.26C18.49 16.52 19.48 17.5 20.74 17.86L18.14 15.26Z"/>
</mask>
<path d="M18.14 15.26C18.49 16.52 19.48 17.5 20.74 17.86L18.14 15.26Z" fill="#7A5AF8"/>
<path d="M17.1765 15.5277C17.6217 17.1305 18.8781 18.368 20.4653 18.8215L21.0147 16.8985C20.082 16.632 19.3583 15.9095 19.1035 14.9924L17.1765 15.5277Z" fill="#9B8AFB" mask="url(#path-2-inside-1_152_3239)"/>
<path opacity="0.8" d="M2.03 14.63C2.03 14.66 2.00999 14.7 2.00999 14.73C2.92999 16.57 4.43 18.08 6.27 18.99C6.3 18.99 6.33999 18.97 6.37 18.97C6.02999 17.81 5.77 16.62 5.58 15.43C4.38 15.23 3.19 14.97 2.03 14.63Z" fill="#7A5AF8"/>
<path opacity="0.8" d="M19.07 6.42999C18.13 4.45999 16.54 2.87 14.58 1.94C14.94 3.13 15.24 4.35001 15.44 5.57001C16.66 5.77001 17.88 6.05999 19.07 6.42999Z" fill="#7A5AF8"/>
<path opacity="0.8" d="M1.92999 6.42999C3.12999 6.06999 4.35001 5.77001 5.57001 5.57001C5.77001 4.38001 6.02 3.20001 6.36 2.04001C6.33 2.04001 6.28999 2.01999 6.25999 2.01999C4.37999 2.94999 2.84999 4.51999 1.92999 6.42999Z" fill="#7A5AF8"/>
<path opacity="0.8" d="M13.82 5.35999C13.58 4.05999 13.28 2.76 12.85 1.5C12.83 1.43 12.83 1.37001 12.82 1.29001C12.08 1.11001 11.3 0.98999 10.5 0.98999C9.69 0.98999 8.92 1.10001 8.17 1.29001C8.16 1.36001 8.16999 1.42 8.14999 1.5C7.72999 2.76 7.41999 4.05999 7.17999 5.35999C9.38999 5.11999 11.61 5.11999 13.82 5.35999Z" fill="#7A5AF8"/>
<path opacity="0.8" d="M5.36 7.17999C4.05 7.41999 2.76 7.71999 1.5 8.14999C1.43 8.16999 1.36999 8.16999 1.28999 8.17999C1.10999 8.91999 0.990005 9.7 0.990005 10.5C0.990005 11.31 1.09999 12.08 1.28999 12.83C1.35999 12.84 1.42 12.83 1.5 12.85C2.76 13.27 4.05 13.58 5.36 13.82C5.12 11.61 5.12 9.38999 5.36 7.17999Z" fill="#7A5AF8"/>
<path opacity="0.8" d="M19.7 8.17999C19.63 8.17999 19.57 8.16999 19.49 8.14999C18.23 7.72999 16.93 7.41999 15.63 7.17999C15.88 9.38999 15.88 11.61 15.63 13.81C16.93 13.57 18.23 13.27 19.49 12.84C19.56 12.82 19.62 12.83 19.7 12.82C19.88 12.07 20 11.3 20 10.49C20 9.69999 19.89 8.92999 19.7 8.17999Z" fill="#7A5AF8"/>
<path opacity="0.8" d="M7.17999 15.64C7.41999 16.95 7.71999 18.24 8.14999 19.5C8.16999 19.57 8.16 19.63 8.17 19.71C8.92 19.89 9.69 20.01 10.5 20.01C11.3 20.01 12.08 19.9 12.82 19.71C12.83 19.64 12.83 19.58 12.85 19.5C13.27 18.24 13.58 16.95 13.82 15.64C12.72 15.76 11.61 15.85 10.5 15.85C9.39 15.84 8.27999 15.76 7.17999 15.64Z" fill="#7A5AF8"/>
<path opacity="0.8" d="M6.94999 6.95001C6.64999 9.31001 6.64999 11.69 6.94999 14.06C9.30999 14.36 11.69 14.36 14.06 14.06C14.36 11.7 14.36 9.32001 14.06 6.95001C11.69 6.65001 9.30999 6.65001 6.94999 6.95001Z" fill="#7A5AF8"/>
</svg>
