<svg width="25" height="25" viewBox="0 0 25 25" fill="none" xmlns="http://www.w3.org/2000/svg">
<path d="M12.5011 12.4998C15.3715 12.5059 17.7033 10.1839 17.7094 7.31348C17.7155 4.44308 15.3935 2.11124 12.5231 2.10516C9.65268 2.09909 7.32083 4.42108 7.31476 7.29149C7.30868 10.1619 9.63068 12.4937 12.5011 12.4998Z" stroke="#FF5A5F" stroke-width="1.5" stroke-linecap="round" stroke-linejoin="round"/>
<path d="M3.55041 22.8759C3.55892 18.8531 7.56775 15.6081 12.4948 15.6185C13.4927 15.6206 14.4591 15.7578 15.3629 16.0092" stroke="#FF5A5F" stroke-width="1.5" stroke-linecap="round" stroke-linejoin="round"/>
<path d="M22.8826 18.759C22.8819 19.0916 22.8396 19.4137 22.7558 19.7254C22.6613 20.141 22.4942 20.546 22.2751 20.899C21.5554 22.1032 20.2335 22.9112 18.7159 22.908C17.6452 22.9058 16.6794 22.4983 15.9532 21.8315C15.6419 21.5606 15.3723 21.2378 15.1652 20.8839C14.7819 20.2594 14.5652 19.521 14.5668 18.7414C14.5692 17.6187 15.0184 16.5906 15.7476 15.8438C16.508 15.0658 17.5693 14.5898 18.7335 14.5923C19.9601 14.5949 21.0712 15.1274 21.8178 15.9813C22.4815 16.7208 22.8848 17.6987 22.8826 18.759Z" stroke="#FF5A5F" stroke-width="1.5" stroke-miterlimit="10" stroke-linecap="round" stroke-linejoin="round"/>
<path d="M20.2732 18.7322L17.1756 18.7256" stroke="#FF5A5F" stroke-width="1.5" stroke-miterlimit="10" stroke-linecap="round" stroke-linejoin="round"/>
<path d="M18.7277 17.2111L18.7211 20.3191" stroke="#FF5A5F" stroke-width="1.5" stroke-miterlimit="10" stroke-linecap="round" stroke-linejoin="round"/>
</svg>
