<svg width="24" height="24" viewBox="0 0 24 24" fill="none" xmlns="http://www.w3.org/2000/svg">
<g clip-path="url(#clip0_1396_2449)">
<path d="M21.8719 0.905762H2.13001C1.45381 0.905762 0.90564 1.45393 0.90564 2.13014V21.872C0.90564 22.5482 1.45381 23.0964 2.13001 23.0964H21.8719C22.5481 23.0964 23.0963 22.5482 23.0963 21.872V2.13014C23.0963 1.45393 22.5481 0.905762 21.8719 0.905762Z" fill="#3D5A98"/>
<path d="M16.215 23.0943V14.5012H19.0987L19.53 11.1524H16.215V9.01494C16.215 8.04557 16.485 7.38369 17.8743 7.38369H19.6481V4.38369C18.7892 4.29418 17.926 4.25161 17.0625 4.25619C14.5087 4.25619 12.75 5.81244 12.75 8.68307V11.1524H9.86621V14.5012H12.75V23.0943H16.215Z" fill="white"/>
</g>
<defs>
<clipPath id="clip0_1396_2449">
<rect width="24" height="24" fill="white"/>
</clipPath>
</defs>
</svg>
