<svg width="29" height="30" viewBox="0 0 29 30" fill="none" xmlns="http://www.w3.org/2000/svg">
<g clip-path="url(#clip0_1673_12744)">
<path d="M25.2856 23.6459C24.5356 22.9772 23.879 22.2107 23.3334 21.367C22.7378 20.2023 22.3808 18.9304 22.2834 17.6259V13.7836C22.2886 11.7347 21.5453 9.75434 20.1933 8.21473C18.8413 6.67511 16.9737 5.6822 14.9412 5.42253V4.41919C14.9412 4.14381 14.8318 3.87971 14.6371 3.68498C14.4424 3.49025 14.1783 3.38086 13.9029 3.38086C13.6275 3.38086 13.3634 3.49025 13.1687 3.68498C12.9739 3.87971 12.8645 4.14381 12.8645 4.41919V5.43808C10.8503 5.71647 9.00518 6.71539 7.67095 8.24983C6.33671 9.78427 5.60377 11.7502 5.60787 13.7836V17.6259C5.51046 18.9304 5.15347 20.2023 4.55787 21.367C4.02189 22.2088 3.3758 22.9752 2.63676 23.6459C2.55379 23.7187 2.4873 23.8085 2.44171 23.909C2.39611 24.0096 2.37245 24.1188 2.37231 24.2292V25.287C2.37231 25.4933 2.45426 25.6911 2.60012 25.8369C2.74598 25.9828 2.94381 26.0647 3.15009 26.0647H24.7723C24.9786 26.0647 25.1764 25.9828 25.3223 25.8369C25.4681 25.6911 25.5501 25.4933 25.5501 25.287V24.2292C25.55 24.1188 25.5263 24.0096 25.4807 23.909C25.4351 23.8085 25.3686 23.7187 25.2856 23.6459ZM3.99009 24.5092C4.71374 23.8101 5.35089 23.0268 5.88787 22.1759C6.63812 20.7692 7.07587 19.2172 7.1712 17.6259V13.7836C7.14036 12.8721 7.29325 11.9637 7.62079 11.1125C7.94833 10.2613 8.44381 9.48469 9.07773 8.82896C9.71165 8.17323 10.471 7.65177 11.3107 7.29563C12.1503 6.93949 13.053 6.75595 13.9651 6.75595C14.8771 6.75595 15.7799 6.93949 16.6195 7.29563C17.4591 7.65177 18.2185 8.17323 18.8525 8.82896C19.4864 9.48469 19.9819 10.2613 20.3094 11.1125C20.6369 11.9637 20.7898 12.8721 20.759 13.7836V17.6259C20.8543 19.2172 21.2921 20.7692 22.0423 22.1759C22.5793 23.0268 23.2164 23.8101 23.9401 24.5092H3.99009Z" fill="#A5A5A5"/>
<path d="M14 28.662C14.4899 28.6507 14.9601 28.4665 15.3273 28.142C15.6946 27.8175 15.9352 27.3735 16.0066 26.8887H11.9155C11.989 27.3867 12.2409 27.8411 12.6243 28.1673C13.0077 28.4935 13.4966 28.6693 14 28.662Z" fill="#A5A5A5"/>
</g>
<circle cx="22" cy="7" r="6.25" fill="#1896F2" stroke="white" stroke-width="1.5"/>
<defs>
<clipPath id="clip0_1673_12744">
<rect width="28" height="28" fill="white" transform="translate(0 2)"/>
</clipPath>
</defs>
</svg>
