<svg width="24" height="24" viewBox="0 0 24 24" fill="none" xmlns="http://www.w3.org/2000/svg">
<path d="M17.25 4V4.75H18H19C19.6858 4.75 20.25 5.31421 20.25 6V20C20.25 20.6858 19.6858 21.25 19 21.25H5C4.30674 21.25 3.75014 20.6884 3.75 20.0003C3.75 20.0002 3.75 20.0001 3.75 20L3.76 6.00054V6C3.76 5.30684 4.31155 4.75 5 4.75H6H6.75V4V2.75H7.25V4V4.75H8H16H16.75V4V2.75H17.25V4ZM19 20.75H19.75V20V9V8.25H19H5H4.25V9V20V20.75H5H19ZM7.75 12.25V11.75H8.25V12.25H7.75ZM11.75 12.25V11.75H12.25V12.25H11.75ZM15.75 12.25V11.75H16.25V12.25H15.75Z" fill="white" stroke="#5FD148" stroke-width="1.5"/>
</svg>
