<svg width="28" height="28" viewBox="0 0 28 28" fill="none" xmlns="http://www.w3.org/2000/svg">
<path d="M13.7252 5.07525L13.7154 6.18057M10.1709 21.4406C12.435 21.7064 14.7225 21.7265 16.9908 21.5006C16.9729 21.7132 16.9365 21.924 16.8818 22.131L16.7851 22.4969C16.4822 23.6432 15.5442 24.5293 14.3542 24.7929C13.8255 24.9101 13.2758 24.9052 12.7492 24.7788C11.5641 24.4942 10.6417 23.5918 10.3591 22.4403L10.2688 22.0728C10.2178 21.8649 10.1851 21.6534 10.1709 21.4406ZM6.86165 11.2118C7.51345 8.96669 9.31683 7.1854 11.6129 6.48936C13.0241 6.06157 14.5543 6.07431 15.9552 6.53434C18.198 7.27088 19.9042 9.05824 20.4881 11.283L21.1315 13.7343L21.6438 16.0671C21.8016 16.7856 22.0184 17.5252 22.1297 18.2518C22.149 18.3778 22.1585 18.5069 22.1573 18.6382C22.147 19.8112 21.2858 20.8144 20.098 21.037L19.6782 21.1157C15.6497 21.8708 11.5054 21.8344 7.49079 21.0085L7.07241 20.9224C5.8887 20.6789 5.0453 19.6607 5.05563 18.4878C5.05678 18.3564 5.06851 18.2275 5.09003 18.1019C5.21412 17.3773 5.44387 16.6417 5.61429 15.9261L6.16755 13.6026L6.86165 11.2118Z" stroke="#82808F" stroke-width="1.14819" stroke-linecap="round"/>
<circle cx="20.7515" cy="9.3168" r="4.26546" transform="rotate(0.504183 20.7515 9.3168)" fill="#5FD148" stroke="white" stroke-width="1.53091"/>
</svg>
