<svg width="16" height="16" viewBox="0 0 16 16" fill="none" xmlns="http://www.w3.org/2000/svg">
<path d="M9.97994 8.5H9.46661H6.35327V10.3867H7.22661H9.97994C10.6133 10.3867 11.1333 9.96 11.1333 9.44C11.1333 8.92 10.6133 8.5 9.97994 8.5Z" fill="#F7931A"/>
<path d="M7.99992 1.33337C4.31992 1.33337 1.33325 4.32004 1.33325 8.00004C1.33325 11.68 4.31992 14.6667 7.99992 14.6667C11.6799 14.6667 14.6666 11.68 14.6666 8.00004C14.6666 4.32004 11.6799 1.33337 7.99992 1.33337ZM9.97992 11.3867H8.87992V12.3334C8.87992 12.6067 8.65325 12.8334 8.37992 12.8334C8.10659 12.8334 7.87992 12.6067 7.87992 12.3334V11.3867H7.22659H7.07325V12.3334C7.07325 12.6067 6.84659 12.8334 6.57325 12.8334C6.29992 12.8334 6.07325 12.6067 6.07325 12.3334V11.3867H5.85325H4.69992C4.42659 11.3867 4.19992 11.16 4.19992 10.8867C4.19992 10.6134 4.42659 10.3867 4.69992 10.3867H5.35325V8.00004V5.61337H4.69992C4.42659 5.61337 4.19992 5.38671 4.19992 5.11337C4.19992 4.84004 4.42659 4.61337 4.69992 4.61337H5.85325H6.07325V3.66671C6.07325 3.39337 6.29992 3.16671 6.57325 3.16671C6.84659 3.16671 7.07325 3.39337 7.07325 3.66671V4.61337H7.22659H7.87992V3.66671C7.87992 3.39337 8.10659 3.16671 8.37992 3.16671C8.65325 3.16671 8.87992 3.39337 8.87992 3.66671V4.61337H9.46659C10.4999 4.61337 11.4133 5.52004 11.4133 6.56004C11.4133 7.00671 11.2533 7.41337 10.9999 7.74671C11.6733 8.07337 12.1333 8.71337 12.1333 9.45337C12.1333 10.5134 11.1666 11.3867 9.97992 11.3867Z" fill="#F7931A"/>
<path d="M10.4133 6.55336C10.4133 6.11336 9.99994 5.60669 9.4666 5.60669H7.22661H6.35327V7.49336H9.4666C9.9866 7.50002 10.4133 7.07336 10.4133 6.55336Z" fill="#F7931A"/>
</svg>
