<svg width="73" height="73" viewBox="0 0 73 73" fill="none" xmlns="http://www.w3.org/2000/svg">
<rect x="-0.0360779" y="0.0363233" width="72.9997" height="72.9997" rx="36.3084" transform="rotate(-0.0565817 -0.0360779 0.0363233)" fill="#2B2B2B" fill-opacity="0.03"/>
<rect x="7.16833" y="7.22637" width="58.6054" height="58.6054" rx="29.149" transform="rotate(-0.0565817 7.16833 7.22637)" fill="#2B2B2B" fill-opacity="0.04"/>
<rect x="15.401" y="15.4453" width="42.1547" height="42.1547" rx="20.9668" transform="rotate(-0.0565817 15.401 15.4453)" fill="#2B2B2B"/>
<path d="M28.1663 33.1979C28.5083 31.7191 29.6911 30.554 31.2198 30.1904C33.3035 29.6946 35.505 29.6981 37.5897 30.1897C39.0998 30.5459 40.3006 31.6793 40.6819 33.1296L40.705 33.2174C41.2708 35.3693 41.2731 37.6228 40.7115 39.7758L40.6886 39.8637C40.3101 41.3147 39.1116 42.4505 37.6022 42.8096C35.5184 43.3054 33.317 43.3132 31.2322 42.8216C29.7029 42.4609 28.5178 41.2982 28.1729 39.8201L28.1159 39.576C27.6448 37.5567 27.6427 35.4623 28.1099 33.4421L28.1663 33.1979Z" stroke="white" stroke-width="1.3788"/>
<path d="M40.7933 39.4445L40.9745 39.5025C41.0217 39.5175 41.0676 39.5358 41.1121 39.5571L42.6618 40.3007C43.8485 40.8702 45.2433 40.039 45.2421 38.7631L45.2379 34.5408C45.2366 33.1927 43.6945 32.3724 42.507 33.0881L41.1411 33.9112C41.0738 33.9518 41.0115 33.9996 40.9554 34.0537L40.9049 34.1023C41.2399 35.8703 41.2027 37.6871 40.7933 39.4445Z" stroke="white" stroke-width="1.3788"/>
</svg>
