<svg width="16" height="16" viewBox="0 0 16 16" fill="none" xmlns="http://www.w3.org/2000/svg">
<path d="M9.97994 8.5H9.46661H6.35327V10.3867H7.22661H9.97994C10.6133 10.3867 11.1333 9.96 11.1333 9.44C11.1333 8.92 10.6133 8.5 9.97994 8.5Z" fill="#F7931A"/>
<path d="M7.99992 1.33325C4.31992 1.33325 1.33325 4.31992 1.33325 7.99992C1.33325 11.6799 4.31992 14.6666 7.99992 14.6666C11.6799 14.6666 14.6666 11.6799 14.6666 7.99992C14.6666 4.31992 11.6799 1.33325 7.99992 1.33325ZM9.97992 11.3866H8.87992V12.3333C8.87992 12.6066 8.65325 12.8333 8.37992 12.8333C8.10659 12.8333 7.87992 12.6066 7.87992 12.3333V11.3866H7.22659H7.07325V12.3333C7.07325 12.6066 6.84659 12.8333 6.57325 12.8333C6.29992 12.8333 6.07325 12.6066 6.07325 12.3333V11.3866H5.85325H4.69992C4.42659 11.3866 4.19992 11.1599 4.19992 10.8866C4.19992 10.6133 4.42659 10.3866 4.69992 10.3866H5.35325V7.99992V5.61325H4.69992C4.42659 5.61325 4.19992 5.38659 4.19992 5.11325C4.19992 4.83992 4.42659 4.61325 4.69992 4.61325H5.85325H6.07325V3.66659C6.07325 3.39325 6.29992 3.16659 6.57325 3.16659C6.84659 3.16659 7.07325 3.39325 7.07325 3.66659V4.61325H7.22659H7.87992V3.66659C7.87992 3.39325 8.10659 3.16659 8.37992 3.16659C8.65325 3.16659 8.87992 3.39325 8.87992 3.66659V4.61325H9.46659C10.4999 4.61325 11.4133 5.51992 11.4133 6.55992C11.4133 7.00659 11.2533 7.41325 10.9999 7.74659C11.6733 8.07325 12.1333 8.71325 12.1333 9.45325C12.1333 10.5133 11.1666 11.3866 9.97992 11.3866Z" fill="#F7931A"/>
<path d="M10.4133 6.55336C10.4133 6.11336 9.99994 5.60669 9.4666 5.60669H7.22661H6.35327V7.49336H9.4666C9.9866 7.50002 10.4133 7.07336 10.4133 6.55336Z" fill="#F7931A"/>
</svg>
