<svg width="360" height="37" viewBox="0 0 360 37" fill="none" xmlns="http://www.w3.org/2000/svg">
<path d="M7.00008 24.4997C6.35842 24.4997 5.80892 24.271 5.35158 23.8137C4.89425 23.3563 4.66597 22.8072 4.66675 22.1663V11.6663C4.66675 11.2969 4.74958 10.9469 4.91525 10.6163C5.08092 10.2858 5.30919 10.0136 5.60008 9.79967L12.6001 4.54967C12.814 4.39412 13.0376 4.27745 13.2709 4.19967C13.5042 4.1219 13.7473 4.08301 14.0001 4.08301C14.2529 4.08301 14.4959 4.1219 14.7292 4.19967C14.9626 4.27745 15.1862 4.39412 15.4001 4.54967L22.4001 9.79967C22.6918 10.0136 22.9204 10.2858 23.0861 10.6163C23.2517 10.9469 23.3342 11.2969 23.3334 11.6663V22.1663C23.3334 22.808 23.1047 23.3575 22.6474 23.8148C22.1901 24.2722 21.641 24.5005 21.0001 24.4997H16.3334V16.333H11.6667V24.4997H7.00008Z" fill="#1896F2"/>
<path d="M96.9999 15.1663C96.6694 15.1663 96.3921 15.0543 96.1681 14.8303C95.9441 14.6063 95.8325 14.3295 95.8333 13.9997C95.8333 13.6691 95.9453 13.3918 96.1693 13.1678C96.3933 12.9438 96.6701 12.8322 96.9999 12.833C97.3305 12.833 97.6078 12.945 97.8318 13.169C98.0558 13.393 98.1674 13.6699 98.1666 13.9997C98.1666 14.3302 98.0546 14.6075 97.8306 14.8315C97.6066 15.0555 97.3297 15.1671 96.9999 15.1663ZM96.9999 25.6663C95.386 25.6663 93.8694 25.3599 92.4499 24.747C91.0305 24.1341 89.7958 23.3031 88.7458 22.2538C87.6958 21.2038 86.8647 19.9691 86.2526 18.5497C85.6405 17.1302 85.334 15.6136 85.3333 13.9997C85.3333 12.3858 85.6397 10.8691 86.2526 9.44967C86.8655 8.03023 87.6965 6.79551 88.7458 5.74551C89.7958 4.69551 91.0305 3.86445 92.4499 3.25234C93.8694 2.64023 95.386 2.33379 96.9999 2.33301C98.6138 2.33301 100.13 2.63945 101.55 3.25234C102.969 3.86523 104.204 4.69629 105.254 5.74551C106.304 6.79551 107.136 8.03023 107.748 9.44967C108.361 10.8691 108.667 12.3858 108.667 13.9997C108.667 15.6136 108.36 17.1302 107.747 18.5497C107.134 19.9691 106.303 21.2038 105.254 22.2538C104.204 23.3038 102.969 24.1353 101.55 24.7482C100.13 25.3611 98.6138 25.6671 96.9999 25.6663ZM96.9999 23.333C99.6055 23.333 101.812 22.4288 103.621 20.6205C105.429 18.8122 106.333 16.6052 106.333 13.9997C106.333 11.3941 105.429 9.18717 103.621 7.37884C101.812 5.57051 99.6055 4.66634 96.9999 4.66634C94.3944 4.66634 92.1874 5.57051 90.3791 7.37884C88.5708 9.18717 87.6666 11.3941 87.6666 13.9997C87.6666 16.6052 88.5708 18.8122 90.3791 20.6205C92.1874 22.4288 94.3944 23.333 96.9999 23.333ZM91.6624 19.9205L98.9541 16.508C99.0708 16.4497 99.1777 16.3719 99.2749 16.2747C99.3721 16.1775 99.4499 16.0705 99.5083 15.9538L102.921 8.66217C103.018 8.46773 102.993 8.2974 102.847 8.15117C102.701 8.00495 102.531 7.98084 102.337 8.07884L95.0458 11.4913C94.9291 11.5497 94.8221 11.6275 94.7249 11.7247C94.6277 11.8219 94.5499 11.9288 94.4916 12.0455L91.0791 19.3372C90.9819 19.5316 91.0064 19.702 91.1526 19.8482C91.2988 19.9944 91.4688 20.0185 91.6624 19.9205Z" fill="#7A7A7A"/>
<path d="M178.542 18.958L175.917 17.7622C175.8 17.7038 175.742 17.6163 175.742 17.4997C175.742 17.383 175.8 17.2955 175.917 17.2372L178.542 16.0413L179.738 13.4163C179.796 13.2997 179.883 13.2413 180 13.2413C180.117 13.2413 180.204 13.2997 180.263 13.4163L181.458 16.0413L184.083 17.2372C184.2 17.2955 184.258 17.383 184.258 17.4997C184.258 17.6163 184.2 17.7038 184.083 17.7622L181.458 18.958L180.263 21.583C180.204 21.6997 180.117 21.758 180 21.758C179.883 21.758 179.796 21.6997 179.738 21.583L178.542 18.958ZM171.833 25.6663C171.192 25.6663 170.642 25.4377 170.185 24.9803C169.728 24.523 169.499 23.9739 169.5 23.333V6.99968C169.5 6.35801 169.729 5.80851 170.186 5.35118C170.643 4.89385 171.192 4.66557 171.833 4.66635H173V3.49968C173 3.16912 173.112 2.89185 173.336 2.66785C173.56 2.44385 173.837 2.33223 174.167 2.33301C174.497 2.33301 174.775 2.44501 174.999 2.66901C175.223 2.89301 175.334 3.1699 175.333 3.49968V4.66635H184.667V3.49968C184.667 3.16912 184.779 2.89185 185.003 2.66785C185.227 2.44385 185.504 2.33223 185.833 2.33301C186.164 2.33301 186.441 2.44501 186.665 2.66901C186.889 2.89301 187.001 3.1699 187 3.49968V4.66635H188.167C188.808 4.66635 189.358 4.89501 189.815 5.35234C190.273 5.80968 190.501 6.35879 190.5 6.99968V23.333C190.5 23.9747 190.271 24.5242 189.814 24.9815C189.357 25.4388 188.808 25.6671 188.167 25.6663H171.833ZM171.833 23.333H188.167V11.6663H171.833V23.333ZM171.833 9.33301H188.167V6.99968H171.833V9.33301Z" fill="#7A7A7A"/>
<path d="M265.021 25.398L265.653 24.3293L264.148 23.438L263.514 24.5067L265.021 25.398ZM260.347 24.3293L260.979 25.398L262.484 24.5067L261.853 23.438L260.347 24.3293ZM263.514 24.5067C263.46 24.594 263.384 24.6659 263.294 24.7158C263.204 24.7657 263.103 24.7919 263 24.7919C262.897 24.7919 262.796 24.7657 262.706 24.7158C262.616 24.6659 262.54 24.594 262.485 24.5067L260.979 25.398C261.881 26.9228 264.118 26.9228 265.021 25.398L263.516 24.5067H263.514ZM261.25 3.20801H264.75V1.45801H261.25V3.20801ZM273.792 12.2497V13.4163H275.542V12.2497H273.792ZM252.208 13.4163V12.2497H250.458V13.4163H252.208ZM250.458 13.4163C250.458 14.7638 250.458 15.8173 250.517 16.6678C250.575 17.5253 250.695 18.2393 250.969 18.8997L252.586 18.23C252.415 17.8193 252.314 17.3177 252.262 16.5488C252.208 15.7718 252.208 14.7872 252.208 13.4163H250.458ZM258.103 21.282C256.638 21.2563 255.87 21.163 255.268 20.9133L254.6 22.5303C255.539 22.92 256.608 23.0075 258.073 23.0332L258.103 21.282ZM250.969 18.8997C251.306 19.7136 251.801 20.4532 252.423 21.0761C253.046 21.6991 253.786 22.1932 254.6 22.5303L255.268 20.9133C254.054 20.4101 253.089 19.4449 252.586 18.23L250.969 18.8997ZM273.792 13.4163C273.792 14.7872 273.792 15.7718 273.738 16.5488C273.685 17.3177 273.585 17.8193 273.415 18.23L275.031 18.8997C275.305 18.2393 275.425 17.5253 275.484 16.6678C275.543 15.8173 275.542 14.7638 275.542 13.4163H273.792ZM267.927 23.0308C269.392 23.0063 270.461 22.92 271.4 22.5303L270.73 20.9133C270.129 21.163 269.362 21.2563 267.898 21.282L267.927 23.032V23.0308ZM273.415 18.23C272.912 19.4449 271.946 20.4101 270.731 20.9133L271.4 22.5303C272.214 22.1932 272.953 21.6991 273.576 21.0761C274.199 20.4532 274.693 19.7136 275.031 18.8997L273.415 18.23ZM264.75 3.20801C266.676 3.20801 268.06 3.20801 269.139 3.31184C270.205 3.41334 270.883 3.60701 271.424 3.93834L272.338 2.44617C271.476 1.91884 270.498 1.68318 269.305 1.56884C268.124 1.45684 266.642 1.45801 264.75 1.45801V3.20801ZM275.542 12.2497C275.542 10.3573 275.542 8.87684 275.43 7.69501C275.316 6.50151 275.081 5.52268 274.553 4.66168L273.06 5.57518C273.393 6.11651 273.586 6.79434 273.688 7.86184C273.79 8.93984 273.792 10.3235 273.792 12.2497H275.542ZM271.423 3.93834C272.091 4.34702 272.652 4.90793 273.061 5.57518L274.553 4.66168C274 3.75865 273.241 2.99944 272.338 2.44617L271.424 3.93951L271.423 3.93834ZM261.25 1.45801C259.358 1.45801 257.877 1.45801 256.695 1.56884C255.502 1.68318 254.523 1.91884 253.662 2.44617L254.575 3.93951C255.117 3.60701 255.795 3.41334 256.862 3.31184C257.94 3.20917 259.324 3.20801 261.25 3.20801V1.45801ZM252.208 12.2497C252.208 10.3235 252.208 8.93984 252.312 7.86068C252.414 6.79434 252.607 6.11651 252.939 5.57518L251.446 4.66284C250.919 5.52384 250.683 6.50151 250.569 7.69501C250.458 8.87801 250.458 10.3573 250.458 12.2497H252.208ZM253.662 2.44617C252.759 2.99944 252 3.75982 251.446 4.66284L252.94 5.57518C253.348 4.90819 253.909 4.34731 254.575 3.93834L253.662 2.44617ZM261.852 23.438C261.616 23.0378 261.409 22.6843 261.206 22.4067C260.997 22.1022 260.726 21.8457 260.41 21.6542L259.53 23.1673C259.585 23.2 259.661 23.2583 259.792 23.438C259.933 23.6317 260.093 23.9 260.347 24.3293L261.852 23.438ZM258.073 23.0308C258.586 23.0402 258.91 23.0472 259.157 23.074C259.388 23.0997 259.478 23.137 259.53 23.1673L260.41 21.6542C260.083 21.4732 259.722 21.3642 259.349 21.3345C259.002 21.296 258.584 21.2902 258.103 21.282L258.073 23.0332V23.0308ZM265.653 24.3293C265.907 23.9012 266.067 23.6317 266.208 23.438C266.339 23.2583 266.415 23.2 266.47 23.1673L265.59 21.6542C265.252 21.8525 265.007 22.115 264.794 22.4067C264.592 22.6843 264.384 23.0367 264.147 23.438L265.653 24.3293ZM267.898 21.282C267.417 21.2902 266.998 21.296 266.65 21.3345C266.288 21.3753 265.932 21.4558 265.59 21.6542L266.47 23.1673C266.522 23.137 266.612 23.0997 266.843 23.074C267.09 23.0472 267.415 23.039 267.928 23.0308L267.898 21.2808V21.282Z" fill="#7A7A7A"/>
<path d="M258.333 10.5H267.667M258.333 14.5833H264.75" stroke="#7A7A7A" stroke-width="1.5" stroke-linecap="round"/>
<g clip-path="url(#clip0_1673_12851)">
<path fill-rule="evenodd" clip-rule="evenodd" d="M344.25 2.33301C342.669 2.33314 341.11 2.71143 339.705 3.43632C338.3 4.1612 337.088 5.21166 336.171 6.50005C335.254 7.78845 334.659 9.27741 334.435 10.8427C334.21 12.408 334.363 14.0043 334.881 15.4984C335.399 16.9924 336.267 18.3409 337.412 19.4314C338.558 20.5218 339.947 21.3226 341.465 21.7669C342.982 22.2112 344.584 22.2861 346.137 21.9854C347.689 21.6847 349.147 21.0171 350.389 20.0383L354.65 24.299C354.87 24.5115 355.164 24.6291 355.47 24.6265C355.776 24.6238 356.069 24.5011 356.285 24.2848C356.501 24.0685 356.624 23.7759 356.627 23.47C356.629 23.1641 356.512 22.8694 356.299 22.6493L352.039 18.3887C353.191 16.9264 353.909 15.1691 354.11 13.318C354.31 11.4669 353.986 9.5967 353.173 7.92145C352.36 6.2462 351.092 4.83359 349.514 3.84528C347.936 2.85697 346.112 2.33288 344.25 2.33301ZM336.667 12.2497C336.667 10.2385 337.466 8.3096 338.888 6.88745C340.31 5.4653 342.239 4.66634 344.25 4.66634C346.261 4.66634 348.19 5.4653 349.612 6.88745C351.034 8.3096 351.833 10.2385 351.833 12.2497C351.833 14.2609 351.034 16.1898 349.612 17.6119C348.19 19.0341 346.261 19.833 344.25 19.833C342.239 19.833 340.31 19.0341 338.888 17.6119C337.466 16.1898 336.667 14.2609 336.667 12.2497Z" fill="#7A7A7A"/>
</g>
<rect x="7" y="33" width="15" height="4" rx="2" fill="#1896F2"/>
<defs>
<clipPath id="clip0_1673_12851">
<rect width="28" height="28" fill="white" transform="translate(332)"/>
</clipPath>
</defs>
</svg>
