<svg width="15" height="20" viewBox="0 0 15 20" fill="none" xmlns="http://www.w3.org/2000/svg">
<path fill-rule="evenodd" clip-rule="evenodd" d="M5.05271 15.9087L7.1576 4.09044H9.48996L7.38411 15.9087H5.05271Z" fill="white"/>
<path fill-rule="evenodd" clip-rule="evenodd" d="M14.4673 0H6.43063C5.21257 0 4.04441 0.478883 3.18311 1.3313C2.32182 2.18372 1.83795 3.33984 1.83795 4.54534C1.83795 5.75084 2.32182 6.90697 3.18311 7.75939C4.04441 8.6118 5.21257 9.09069 6.43063 9.09069H12.7501L13.1794 6.81802H6.43063C6.12907 6.81802 5.83046 6.75923 5.55186 6.64502C5.27325 6.53081 5.0201 6.3634 4.80687 6.15237C4.59363 5.94133 4.42449 5.69079 4.30909 5.41506C4.19368 5.13932 4.13429 4.8438 4.13429 4.54534C4.13429 4.24689 4.19368 3.95136 4.30909 3.67563C4.42449 3.3999 4.59363 3.14936 4.80687 2.93832C5.0201 2.72729 5.27325 2.55988 5.55186 2.44567C5.83046 2.33146 6.12907 2.27267 6.43063 2.27267H14.038L14.4673 0Z" fill="white"/>
<path fill-rule="evenodd" clip-rule="evenodd" d="M0 20H8.03766C9.25572 20 10.4239 19.5211 11.2852 18.6687C12.1465 17.8163 12.6303 16.6602 12.6303 15.4547C12.6303 14.2492 12.1465 13.093 11.2852 12.2406C10.4239 11.3882 9.25572 10.9093 8.03766 10.9093H1.71728L1.28796 13.182H8.03766C8.33922 13.182 8.63783 13.2408 8.91644 13.355C9.19504 13.4692 9.44819 13.6366 9.66142 13.8476C9.87466 14.0587 10.0438 14.3092 10.1592 14.5849C10.2746 14.8607 10.334 15.1562 10.334 15.4547C10.334 15.7531 10.2746 16.0486 10.1592 16.3244C10.0438 16.6001 9.87466 16.8506 9.66142 17.0617C9.44819 17.2727 9.19504 17.4401 8.91644 17.5543C8.63783 17.6685 8.33922 17.7273 8.03766 17.7273H0.42932L0 20Z" fill="white"/>
</svg>
