<svg width="23" height="23" viewBox="0 0 23 23" fill="none" xmlns="http://www.w3.org/2000/svg">
<path d="M15.0576 16.0744L6.92585 7.94267C6.64801 7.66483 6.64801 7.20404 6.92585 6.9262C7.20368 6.64837 7.66448 6.64837 7.94232 6.9262L16.074 15.0579C16.3519 15.3358 16.3519 15.7966 16.074 16.0744C15.7962 16.3522 15.3354 16.3522 15.0576 16.0744Z" fill="#2B2B2B"/>
<path d="M6.92596 16.0744C6.64812 15.7966 6.64812 15.3358 6.92596 15.0579L15.0577 6.9262C15.3355 6.64837 15.7963 6.64837 16.0742 6.9262C16.352 7.20404 16.352 7.66483 16.0742 7.94267L7.94242 16.0744C7.66459 16.3522 7.20379 16.3522 6.92596 16.0744Z" fill="#2B2B2B"/>
</svg>
