<svg width="18" height="13" viewBox="0 0 18 13" fill="none" xmlns="http://www.w3.org/2000/svg">
<g clip-path="url(#clip0_1673_12829)">
<path d="M0 0H18V13H0V0Z" fill="#20603D"/>
<path d="M0 0H18V9.75H0V0Z" fill="#FAD201"/>
<path d="M0 0H18V6.5H0V0Z" fill="#00A1DE"/>
<path d="M16.5489 3.39599L15.0414 3.48085L16.4739 3.93946L14.9964 3.64515L16.2583 4.44321L14.9083 3.7896L15.9095 4.87835L14.7826 3.91238L15.4614 5.21238L14.6308 3.99724L14.9345 5.41822L14.4601 4.04057L14.372 5.49225L14.3533 3.37793L16.5489 3.39599Z" fill="#E5BE01"/>
<path d="M16.5489 3.39601L15.0414 3.31115L16.4739 2.85253L14.9964 3.14684L16.2583 2.34878L14.9083 3.00239L15.9095 1.91364L14.7826 2.87962L15.4614 1.57961L14.6308 2.79475L14.9345 1.37377L14.4601 2.75142L14.372 1.29975L14.3533 3.41406L16.5489 3.39601Z" fill="#E5BE01"/>
<path d="M12.195 3.39599L13.7025 3.48085L12.27 3.93946L13.7475 3.64515L12.4856 4.44321L13.8356 3.7896L12.8344 4.87835L13.9612 3.91238L13.2825 5.21238L14.1131 3.99724L13.8094 5.41822L14.2837 4.04057L14.3719 5.49225L14.3906 3.37793L12.195 3.39599Z" fill="#E5BE01"/>
<path d="M12.195 3.39601L13.7025 3.31115L12.27 2.85253L13.7475 3.14684L12.4856 2.34878L13.8356 3.00239L12.8344 1.91364L13.9612 2.87962L13.2825 1.57961L14.1131 2.79475L13.8094 1.37377L14.2837 2.75142L14.3719 1.29975L14.3906 3.41406L12.195 3.39601Z" fill="#E5BE01"/>
<path d="M14.3719 4.01498C14.7271 4.01498 15.015 3.73771 15.015 3.39568C15.015 3.05364 14.7271 2.77637 14.3719 2.77637C14.0167 2.77637 13.7288 3.05364 13.7288 3.39568C13.7288 3.73771 14.0167 4.01498 14.3719 4.01498Z" fill="#E5BE01" stroke="#00A1DE" stroke-width="0.283335"/>
</g>
<defs>
<clipPath id="clip0_1673_12829">
<rect width="18" height="13" fill="white"/>
</clipPath>
</defs>
</svg>
