<svg width="16" height="16" viewBox="0 0 16 16" fill="none" xmlns="http://www.w3.org/2000/svg">
<path d="M16 0H0V16H16V0Z" fill="white"/>
<path opacity="0.4" d="M11.6667 7.65999C11.5934 7.71999 11.52 7.76666 11.4334 7.80666L10.7067 8.17332L8.66002 9.19332C8.29335 9.37999 7.70002 9.37999 7.34002 9.19332L5.29335 8.17332L4.56669 7.80666C4.48669 7.75999 4.41335 7.71999 4.33335 7.65999C3.62669 7.16666 3.50002 6.26666 4.06669 5.55332L6.84669 2.08666C7.02002 1.87332 7.22669 1.71332 7.44002 1.61999C7.80002 1.44666 8.20002 1.44666 8.55335 1.61999C8.76669 1.71332 8.98002 1.87332 9.14669 2.08666L11.9267 5.55332C12.5 6.27332 12.3734 7.17332 11.6667 7.65999Z" fill="#627EEA"/>
<path d="M11.6666 7.65991C11.5933 7.71991 11.5199 7.76658 11.4333 7.80658L10.7066 8.17325L7.99992 6.13991L5.29325 8.17992L4.56659 7.81325C4.48659 7.76658 4.41325 7.72658 4.33325 7.66658C4.35992 7.53992 4.42659 7.42658 4.53992 7.34658L7.43992 5.16658V1.62658C7.79992 1.45325 8.19992 1.45325 8.55325 1.62658V5.16658L11.4533 7.34658C11.5666 7.42658 11.6333 7.53325 11.6666 7.65991Z" fill="#627EEA"/>
<path d="M5.84666 9.62001L6.91999 10.1C7.60666 10.4067 8.39333 10.4067 9.08666 10.1L10.16 9.62001C11.12 9.19334 12.0067 10.3533 11.34 11.1667L9.03333 13.9867C8.46666 14.68 7.53999 14.68 6.96666 13.9867L4.66666 11.1667C3.99333 10.3533 4.87999 9.19334 5.84666 9.62001Z" fill="#627EEA"/>
</svg>
