<svg width="62" height="16" viewBox="0 0 62 16" fill="none" xmlns="http://www.w3.org/2000/svg">
<path fill-rule="evenodd" clip-rule="evenodd" d="M4.04211 12.7269L5.72602 3.27233H7.59189L5.90722 12.7269H4.04211Z" fill="white"/>
<path fill-rule="evenodd" clip-rule="evenodd" d="M11.5738 0H5.14446C4.17002 0 3.23549 0.383104 2.54646 1.06503C1.85743 1.74696 1.47033 2.67186 1.47033 3.63625C1.47033 4.60065 1.85743 5.52554 2.54646 6.20747C3.23549 6.8894 4.17002 7.27251 5.14446 7.27251H10.2L10.5434 5.45438H5.14446C4.90321 5.45438 4.66433 5.40735 4.44144 5.31598C4.21856 5.22461 4.01604 5.09069 3.84546 4.92186C3.67487 4.75304 3.53955 4.55261 3.44723 4.33202C3.35491 4.11144 3.3074 3.87501 3.3074 3.63625C3.3074 3.39749 3.35491 3.16107 3.44723 2.94049C3.53955 2.7199 3.67487 2.51947 3.84546 2.35064C4.01604 2.18182 4.21856 2.04789 4.44144 1.95652C4.66433 1.86515 4.90321 1.81813 5.14446 1.81813H11.2303L11.5738 0Z" fill="white"/>
<path fill-rule="evenodd" clip-rule="evenodd" d="M0 15.9999H6.43009C7.40453 15.9999 8.33906 15.6168 9.02809 14.9349C9.71712 14.2529 10.1042 13.328 10.1042 12.3637C10.1042 11.3993 9.71712 10.4744 9.02809 9.79243C8.33906 9.1105 7.40453 8.7274 6.43009 8.7274H1.37382L1.03036 10.5455H6.43009C6.67134 10.5455 6.91023 10.5926 7.13311 10.6839C7.35599 10.7753 7.55851 10.9092 7.72909 11.078C7.89968 11.2469 8.035 11.4473 8.12732 11.6679C8.21964 11.8885 8.26716 12.1249 8.26716 12.3637C8.26716 12.6024 8.21964 12.8388 8.12732 13.0594C8.035 13.28 7.89968 13.4804 7.72909 13.6493C7.55851 13.8181 7.35599 13.952 7.13311 14.0434C6.91023 14.1348 6.67134 14.1818 6.43009 14.1818H0.343454L0 15.9999Z" fill="white"/>
<path d="M20.0621 9.05993C21.4025 9.35332 23.1448 9.90483 23.11 11.7492C23.11 12.5746 22.7786 13.2312 22.1342 13.6964C21.4897 14.1616 20.6891 14.407 19.7126 14.407C17.9885 14.407 16.717 13.6491 16.1598 12.3908L17.7792 11.4596C18.0759 12.287 18.7204 12.7007 19.7126 12.7007C20.7058 12.7007 21.1933 12.3735 21.1933 11.7357C21.1933 11.1842 20.4617 10.8563 19.539 10.6327C18.2326 10.3048 16.4736 9.78778 16.5062 7.97791C16.5062 7.18477 16.8019 6.54696 17.4115 6.06448C18.0211 5.582 18.7876 5.34038 19.6929 5.34038C21.1387 5.34038 22.3055 6.01571 22.9151 7.133L21.3305 8.01242C21.0341 7.35736 20.4768 7.0302 19.6929 7.0302C18.9794 7.0302 18.4214 7.3401 18.4214 7.94339C18.4237 8.50841 19.1561 8.8018 20.0621 9.05993Z" fill="white"/>
<path d="M29.2756 7.35357H27.1156V11.4903C27.1156 12.5934 27.8472 12.5761 29.2756 12.5071V14.1819C26.4021 14.5263 25.2345 13.7504 25.2345 11.4926V7.35357H23.6325V5.56096H25.2345V3.69931L27.1156 3.15154V5.56096H29.2756V7.35357Z" fill="white"/>
<path d="M37.5301 5.56096H39.4111V14.1819H37.5301V12.9385C36.8159 13.9207 35.806 14.4032 34.4822 14.4032C33.2805 14.4032 32.2706 13.9725 31.4169 13.0931C30.5632 12.2137 30.1454 11.1286 30.1454 9.86653C30.1454 8.59092 30.564 7.5224 31.4169 6.63998C32.2699 5.75755 33.2843 5.3366 34.483 5.3366C35.8068 5.3366 36.8166 5.81983 37.5308 6.7848L37.5301 5.56096ZM34.7787 12.6279C35.5619 12.6279 36.2237 12.3697 36.7461 11.8527C37.2693 11.3177 37.5301 10.6634 37.5301 9.87028C37.5301 9.07715 37.2693 8.42209 36.7461 7.90509C36.2237 7.37083 35.5619 7.11195 34.7787 7.11195C33.9955 7.11195 33.3328 7.37083 32.8074 7.90509C32.2853 8.42234 32.024 9.0774 32.0235 9.87028C32.0235 10.6634 32.285 11.3177 32.8074 11.8527C33.3336 12.3697 33.9955 12.6279 34.7794 12.6279H34.7787Z" fill="white"/>
<path d="M40.9091 14.1819V1.5968H42.7901V14.1819H40.9091Z" fill="white"/>
<path d="M44.2708 14.1819V1.5968H46.1511V14.1819H44.2708Z" fill="white"/>
<path d="M48.7638 10.6634C49.042 11.9728 50.105 12.6969 51.5501 12.6969C52.5433 12.6969 53.2939 12.3352 53.7973 11.6284L55.347 12.5243C54.4933 13.7827 53.2241 14.4002 51.5326 14.4002C50.1224 14.4002 48.973 13.9695 48.1019 13.1246C47.2305 12.2632 46.7951 11.1774 46.7956 9.86731C46.7956 8.57443 47.2308 7.50592 48.0845 6.64075C48.9382 5.76208 50.0557 5.33062 51.3939 5.33062C52.6646 5.33062 53.7101 5.78083 54.5282 6.65801C55.3463 7.53518 55.7648 8.62321 55.7648 9.88456C55.7617 10.1446 55.7384 10.404 55.695 10.6604L48.7638 10.6634ZM53.8663 9.14621C53.6055 7.74978 52.6123 7.02643 51.3765 7.02643C49.9829 7.02643 49.0072 7.83608 48.7463 9.14621H53.8663Z" fill="white"/>
<path d="M62.0001 7.35357H59.8408V11.4903C59.8408 12.5934 60.5716 12.5761 62.0001 12.5071V14.1819C59.1266 14.5263 57.9597 13.7504 57.9597 11.4926V7.35357H56.3569V5.56096H57.9597V3.69931L59.8408 3.15154V5.56096H62.0001V7.35357Z" fill="white"/>
</svg>
