<svg width="18" height="18" viewBox="0 0 18 18" fill="none" xmlns="http://www.w3.org/2000/svg">
<g clip-path="url(#clip0_1673_12775)">
<path d="M9.00012 15.75C13.9712 15.75 18.0001 12.477 18.0001 8.4375C18.0001 4.39805 13.9712 1.125 9.00012 1.125C4.02902 1.125 0.000117515 4.39805 0.000117515 8.4375C0.000117515 10.023 0.622383 11.4891 1.67707 12.6879C1.61027 13.5492 1.27629 14.3156 0.924727 14.8992C0.731367 15.2227 0.534492 15.4828 0.390352 15.6586C0.316524 15.7465 0.260274 15.8133 0.218086 15.859C0.196992 15.8801 0.18293 15.8977 0.172383 15.9082L0.161836 15.9187C0.000117516 16.0805 -0.0455856 16.3195 0.042305 16.5305C0.130196 16.7414 0.334102 16.8785 0.562617 16.8785C1.5716 16.8785 2.58762 16.5656 3.43137 16.2C4.23645 15.8484 4.92199 15.4301 5.34035 15.1242C6.45832 15.5285 7.69582 15.7535 9.00012 15.7535V15.75ZM7.87512 5.625C7.87512 5.31563 8.12824 5.0625 8.43762 5.0625H9.56262C9.87199 5.0625 10.1251 5.31563 10.1251 5.625V7.3125H11.8126C12.122 7.3125 12.3751 7.56563 12.3751 7.875V9C12.3751 9.30937 12.122 9.5625 11.8126 9.5625H10.1251V11.25C10.1251 11.5594 9.87199 11.8125 9.56262 11.8125H8.43762C8.12824 11.8125 7.87512 11.5594 7.87512 11.25V9.5625H6.18762C5.87824 9.5625 5.62512 9.30937 5.62512 9V7.875C5.62512 7.56563 5.87824 7.3125 6.18762 7.3125H7.87512V5.625Z" fill="#00BD4C"/>
</g>
<defs>
<clipPath id="clip0_1673_12775">
<rect width="18" height="18" fill="white"/>
</clipPath>
</defs>
</svg>
