<svg width="20" height="20" viewBox="0 0 20 20" fill="none" xmlns="http://www.w3.org/2000/svg">
<path fill-rule="evenodd" clip-rule="evenodd" d="M8.98391 10.8531C10.4434 12.0207 12.2304 13.7984 13.4315 16.2007L11.5681 17.1323C10.547 15.0901 9.00077 13.5345 7.6825 12.4799C7.02705 11.9556 6.43813 11.5632 6.01648 11.3037C5.80596 11.1742 5.638 11.0783 5.52537 11.0161C5.46908 10.9851 5.4267 10.9625 5.39982 10.9484L5.37136 10.9336L5.36693 10.9314C5.36695 10.9314 5.36697 10.9314 5.36742 10.9306L5.3674 9.06931C5.36695 9.06847 5.36693 9.06848 5.3669 9.0685L5.37134 9.06623L5.3998 9.05146C5.42668 9.03736 5.46906 9.01477 5.52535 8.98372C5.63798 8.92158 5.80594 8.82569 6.01647 8.69614C6.43811 8.43666 7.02704 8.04425 7.68248 7.51988C9.00076 6.46524 10.547 4.90967 11.5681 2.86739L13.4315 3.79905C12.2304 6.20129 10.4434 7.97907 8.98393 9.14666C8.57058 9.47734 8.18023 9.76169 7.83211 9.99991C8.18023 10.2381 8.57058 10.5225 8.98391 10.8531Z" fill="black"/>
</svg>
